<svg width="16" height="16" viewBox="0 0 16 16" fill="none" xmlns="http://www.w3.org/2000/svg">
<g opacity="0.7" clip-path="url(#clip0)">
<path d="M10 3.33335H9.33334V2.66669H10V3.33335ZM6.66668 3.33335H6.00001V2.66669H6.66668V3.33335ZM10.3533 1.44002L11.2267 0.566685C11.3533 0.440019 11.3533 0.226685 11.2267 0.093352C11.0933 -0.0333146 10.88 -0.0333146 10.7533 0.093352L9.76668 1.08002C9.23334 0.820019 8.63334 0.666685 8.00001 0.666685C7.36001 0.666685 6.76001 0.820019 6.22668 1.08669L5.23334 0.093352C5.10668 -0.0333146 4.89334 -0.0333146 4.76668 0.093352C4.63334 0.226685 4.63334 0.440019 4.76668 0.566685L5.64001 1.44002C4.64668 2.17335 4.00001 3.33335 4.00001 4.66668H12C12 3.33335 11.3333 2.16669 10.3533 1.44002ZM13.6667 5.33335C13.4015 5.33335 13.1471 5.43871 12.9596 5.62624C12.772 5.81378 12.6667 6.06813 12.6667 6.33335V11C12.6667 11.2652 12.772 11.5196 12.9596 11.7071C13.1471 11.8947 13.4015 12 13.6667 12C13.9319 12 14.1862 11.8947 14.3738 11.7071C14.5613 11.5196 14.6667 11.2652 14.6667 11V6.33335C14.6667 6.06813 14.5613 5.81378 14.3738 5.62624C14.1862 5.43871 13.9319 5.33335 13.6667 5.33335ZM2.33334 5.33335C2.06813 5.33335 1.81377 5.43871 1.62624 5.62624C1.4387 5.81378 1.33334 6.06813 1.33334 6.33335V11C1.33334 11.2652 1.4387 11.5196 1.62624 11.7071C1.81377 11.8947 2.06813 12 2.33334 12C2.59856 12 2.85291 11.8947 3.04045 11.7071C3.22799 11.5196 3.33334 11.2652 3.33334 11V6.33335C3.33334 6.06813 3.22799 5.81378 3.04045 5.62624C2.85291 5.43871 2.59856 5.33335 2.33334 5.33335ZM4.00001 12C4.00001 12.1768 4.07025 12.3464 4.19527 12.4714C4.3203 12.5964 4.48987 12.6667 4.66668 12.6667H5.33334V15C5.33334 15.2652 5.4387 15.5196 5.62624 15.7071C5.81377 15.8947 6.06813 16 6.33334 16C6.59856 16 6.85291 15.8947 7.04045 15.7071C7.22799 15.5196 7.33334 15.2652 7.33334 15V12.6667H8.66668V15C8.66668 15.2652 8.77203 15.5196 8.95957 15.7071C9.14711 15.8947 9.40146 16 9.66668 16C9.93189 16 10.1862 15.8947 10.3738 15.7071C10.5613 15.5196 10.6667 15.2652 10.6667 15V12.6667H11.3333C11.5102 12.6667 11.6797 12.5964 11.8047 12.4714C11.9298 12.3464 12 12.1768 12 12V5.33335H4.00001V12Z" fill="black"/>
</g>
<defs>
<clipPath id="clip0">
<rect width="16" height="16" fill="white"/>
</clipPath>
</defs>
</svg>
