<svg width="128" height="32" viewBox="0 0 128 32" fill="none" xmlns="http://www.w3.org/2000/svg">
<rect width="128" height="32" rx="16" fill="#F4F5F7"/>
<g opacity="0.7" clip-path="url(#clip0)">
<path d="M77.5 10.1667H76.6666V9.33334H77.5V10.1667ZM73.3333 10.1667H72.5V9.33334H73.3333V10.1667ZM77.9416 7.80001L79.0333 6.70834C79.1916 6.55001 79.1916 6.28334 79.0333 6.11667C78.8666 5.95834 78.6 5.95834 78.4416 6.11667L77.2083 7.35001C76.5416 7.02501 75.7916 6.83334 75 6.83334C74.2 6.83334 73.45 7.02501 72.7833 7.35834L71.5416 6.11667C71.3833 5.95834 71.1166 5.95834 70.9583 6.11667C70.7916 6.28334 70.7916 6.55001 70.9583 6.70834L72.05 7.80001C70.8083 8.71667 70 10.1667 70 11.8333H80C80 10.1667 79.1666 8.70834 77.9416 7.80001ZM82.0833 12.6667C81.7518 12.6667 81.4338 12.7984 81.1994 13.0328C80.965 13.2672 80.8333 13.5852 80.8333 13.9167V19.75C80.8333 20.0815 80.965 20.3995 81.1994 20.6339C81.4338 20.8683 81.7518 21 82.0833 21C82.4148 21 82.7328 20.8683 82.9672 20.6339C83.2016 20.3995 83.3333 20.0815 83.3333 19.75V13.9167C83.3333 13.5852 83.2016 13.2672 82.9672 13.0328C82.7328 12.7984 82.4148 12.6667 82.0833 12.6667ZM67.9166 12.6667C67.5851 12.6667 67.2672 12.7984 67.0327 13.0328C66.7983 13.2672 66.6666 13.5852 66.6666 13.9167V19.75C66.6666 20.0815 66.7983 20.3995 67.0327 20.6339C67.2672 20.8683 67.5851 21 67.9166 21C68.2481 21 68.5661 20.8683 68.8005 20.6339C69.0349 20.3995 69.1666 20.0815 69.1666 19.75V13.9167C69.1666 13.5852 69.0349 13.2672 68.8005 13.0328C68.5661 12.7984 68.2481 12.6667 67.9166 12.6667ZM70 21C70 21.221 70.0878 21.433 70.244 21.5893C70.4003 21.7455 70.6123 21.8333 70.8333 21.8333H71.6666V24.75C71.6666 25.0815 71.7983 25.3995 72.0327 25.6339C72.2672 25.8683 72.5851 26 72.9166 26C73.2481 26 73.5661 25.8683 73.8005 25.6339C74.0349 25.3995 74.1666 25.0815 74.1666 24.75V21.8333H75.8333V24.75C75.8333 25.0815 75.965 25.3995 76.1994 25.6339C76.4338 25.8683 76.7518 26 77.0833 26C77.4148 26 77.7328 25.8683 77.9672 25.6339C78.2016 25.3995 78.3333 25.0815 78.3333 24.75V21.8333H79.1666C79.3876 21.8333 79.5996 21.7455 79.7559 21.5893C79.9122 21.433 80 21.221 80 21V12.6667H70V21Z" fill="black"/>
</g>
<path d="M55.3334 13L48.0001 20.3333L44.6667 17" stroke="#3978F1" stroke-width="2" stroke-linecap="round" stroke-linejoin="round"/>
<defs>
<clipPath id="clip0">
<rect width="20" height="20" fill="white" transform="translate(65 6)"/>
</clipPath>
</defs>
</svg>
