<svg width="264" height="169" viewBox="0 0 264 169" fill="none" xmlns="http://www.w3.org/2000/svg">
<path d="M75.5072 37.8289C75.6266 38.5145 75.7757 39.1703 75.8056 39.8559C75.8652 41.1973 75.0299 41.8233 73.8067 41.2867C72.8222 40.8396 71.957 40.1838 71.0322 39.6174C69.5703 38.3952 68.0786 37.2029 66.6167 35.9807C65.1847 34.4604 65.1847 34.4604 64.2599 35.9807C62.082 38.6337 60.0831 41.406 57.7561 43.9099C57.3086 44.3869 56.861 44.834 56.3539 45.2513C55.7572 45.7283 55.1307 46.1754 54.355 45.6686C53.5793 45.1619 53.639 44.357 53.8777 43.6714C54.5937 41.7339 55.429 39.7963 56.1749 37.8885C56.4135 37.2923 56.6224 36.6961 56.8312 36.0701C57.6367 34.997 57.2191 34.5201 56.0257 34.371C54.5638 34.1624 53.0721 33.9239 51.6103 33.6258C50.8048 33.4767 49.9993 33.119 49.8799 32.2248C49.7606 31.3007 50.5363 30.8536 51.2224 30.466C54.0268 28.8265 57.0699 27.7534 60.1129 26.7101C61.0975 26.3822 61.6345 25.8754 61.903 24.8321C62.5892 22.1493 63.3947 19.4665 64.4985 16.9327C64.8565 16.1279 65.1549 15.174 66.2886 15.2038C67.4222 15.2634 67.6311 16.2769 67.8698 17.1116C68.4366 19.0194 68.7648 20.9868 68.8543 22.9542C68.9139 24.0273 69.2719 24.1763 70.2266 23.8186C72.2852 23.1032 74.4034 22.507 76.5514 22.1791C77.2973 22.0599 78.1028 21.9406 78.5205 22.7753C78.9381 23.5801 78.431 24.2359 77.8939 24.7427C76.2829 26.2033 74.6421 27.664 72.9714 29.065C72.2852 29.6314 72.136 30.1083 72.5238 30.943C73.3294 32.6421 74.0454 34.371 74.7912 36.0999C75.0299 36.6663 75.1492 37.2923 75.5072 37.8289Z" fill="#FDEA2E"/>
<path d="M90.2747 35.9802C89.9466 35.9802 89.6184 35.9802 89.2902 35.9802C88.5444 35.3244 88.5742 34.5196 88.7234 33.6551C89.2306 30.2569 90.0957 26.9481 91.0803 23.6691C91.4979 22.2681 91.0803 21.9402 89.7974 21.8508C88.0074 21.7315 86.2472 21.4036 84.5466 20.8372C84.0693 20.6882 83.5919 20.5093 83.2041 20.2411C81.8616 19.3766 81.9511 18.2439 83.4129 17.5583C85.203 16.7236 87.172 16.664 89.0814 16.4255C90.1256 16.3063 91.1698 16.1274 92.1841 16.187C93.5863 16.2765 93.9145 15.561 94.0935 14.3687C94.4217 12.1628 94.9288 9.98676 95.615 7.8405C95.7642 7.36356 95.9134 6.88662 96.1222 6.43948C96.4504 5.78368 96.689 5.03845 97.6437 5.00865C98.6581 4.97884 98.9862 5.75387 99.2846 6.4991C100.15 8.67516 100.478 11.0003 100.985 13.2657C101.254 14.5177 101.701 14.7562 102.894 14.2494C104.923 13.3552 106.982 12.4609 109.219 12.133C110.055 12.0138 110.86 11.9542 111.337 12.759C111.904 13.6831 111.367 14.3985 110.771 15.0245C108.891 16.9621 106.683 18.4823 104.416 19.9132C103.461 20.5093 103.223 20.9863 103.789 22.0296C104.804 23.9076 105.729 25.8452 106.624 27.7828C107.041 28.677 107.399 29.6011 107.698 30.555C107.877 31.0916 107.817 31.6579 107.25 32.0156C106.713 32.3733 106.176 32.2541 105.729 31.8964C104.923 31.2406 104.177 30.5252 103.402 29.8098C102.298 28.7366 101.164 27.6933 100.12 26.5606C99.1951 25.5471 98.4492 25.7557 97.7034 26.7394C96.0327 28.9453 94.3322 31.1512 92.6316 33.357C91.9454 34.2811 91.2294 35.2052 90.2747 35.9802Z" fill="#FDEA2E"/>
<path d="M197.617 38.9915C197.647 39.5876 197.647 40.1838 197.677 40.78C197.677 42.0022 197.677 43.2542 197.647 44.4763C197.617 45.2514 197.438 45.9966 196.543 46.2052C195.589 46.4437 195.051 45.7581 194.723 45.0129C193.918 43.2243 193.142 41.3762 192.366 39.5578C191.949 38.5443 191.621 37.501 191.084 36.5769C190.815 36.0702 190.397 35.4144 189.532 35.6827C188.13 36.1298 186.758 36.5769 185.534 37.4712C184.013 38.2164 182.521 38.9616 181 39.7069C180.522 39.9453 180.045 40.2434 179.538 40.4223C178.643 40.7502 177.599 41.4656 176.823 40.3925C176.107 39.379 177.091 38.6636 177.599 37.9183C178.046 37.2625 178.583 36.6664 179.061 36.0702C180.582 34.6393 182.104 33.2383 183.595 31.8075C184.222 31.2113 183.536 30.9728 183.178 30.6747C182.163 29.8699 181.089 29.1545 180.135 28.29C179.359 27.6044 178.374 26.8294 179.001 25.6668C179.598 24.5043 180.821 24.862 181.805 25.011C183.774 25.3389 185.654 25.9351 187.533 26.6505C188.369 26.9784 188.846 26.8294 189.323 25.9947C191.024 23.0734 192.754 20.182 194.872 17.5289C195.559 16.6645 196.215 15.3827 197.558 15.8298C199.049 16.3068 198.691 17.7674 198.632 18.9002C198.542 21.4339 198.184 23.9379 197.587 26.412C197.229 27.9323 197.677 28.5285 199.139 28.8266C201.138 29.2141 203.077 29.9295 204.897 30.8238C205.732 31.2411 206.925 31.5392 206.746 32.8508C206.567 34.1326 205.434 34.1624 204.449 34.3114C204.3 34.3412 204.151 34.3711 204.002 34.4307C203.793 34.3412 203.584 34.3114 203.405 34.4903C201.794 34.4903 200.153 34.4903 198.542 34.4307C197.587 34.4009 197.11 34.699 197.379 35.7125C197.379 35.8019 197.408 35.9211 197.408 36.0106C197.259 36.8154 197.379 37.6202 197.468 38.3953C197.617 38.6039 197.617 38.8126 197.617 38.9915Z" fill="#FDEA2E"/>
<path d="M122.466 13.2363C120.497 12.6103 118.587 12.4016 116.857 11.6266C115.962 11.2391 115.097 10.7919 115.156 9.62939C115.216 8.40722 116.26 8.16875 117.126 7.93028C119.84 7.24467 122.645 7.15524 125.419 7.18505C126.404 7.18505 126.822 6.85715 127.06 5.96288C127.478 4.32338 127.955 2.7137 128.731 1.19343C129.029 0.597253 129.387 0.0308814 130.133 0.00107238C130.968 -0.0287367 131.356 0.567444 131.655 1.22324C132.46 3.10121 132.967 5.09842 133.355 7.09563C133.564 8.10913 133.982 8.37741 134.936 8.3178C137.025 8.22837 139.113 8.28799 141.172 8.73512C141.947 8.91398 142.812 9.03321 143.051 9.9573C143.32 11.0006 142.484 11.4776 141.828 11.9545C140.485 12.9084 138.994 13.6238 137.442 14.1306C136.219 14.5181 135.891 15.0845 136.219 16.3662C136.876 18.751 137.293 21.2251 137.323 23.6993C137.323 24.206 137.293 24.683 137.263 25.1897C137.204 25.7859 136.935 26.233 136.339 26.4119C135.772 26.5907 135.354 26.2927 135.056 25.8753C134.549 25.2195 134.011 24.5339 133.594 23.8185C132.251 21.553 130.879 19.2875 129.686 16.9624C129.089 15.8297 128.731 16.0681 128.075 16.8134C125.628 19.5558 123.122 22.2386 120.288 24.5935C119.423 25.309 118.498 26.6206 117.215 25.5772C116.051 24.6233 116.887 23.3416 117.305 22.2982C118.528 19.0789 120.377 16.1874 122.466 13.2363Z" fill="#FDEA2E"/>
<path d="M165.725 10.375C165.606 11.8953 165.486 13.8328 165.248 15.7406C165.128 16.6349 165.307 16.9628 166.262 17.0522C168.231 17.2311 170.17 17.6782 172.05 18.3638C172.945 18.6917 173.959 19.0494 173.81 20.2418C173.661 21.3447 172.646 21.5236 171.781 21.6428C170.11 21.8515 168.44 22.0303 166.739 22.1794C165.755 22.239 165.397 22.4775 165.576 23.6102C165.993 26.293 166.411 29.0056 166.351 31.7481C166.322 32.5827 166.411 33.5664 165.397 33.8645C164.382 34.1924 163.845 33.3578 163.398 32.6424C161.966 30.3769 160.593 28.0816 159.251 25.7565C158.684 24.7728 158.117 24.7131 157.222 25.2795C154.627 26.919 152.001 28.5287 149.346 30.0788C148.451 30.6153 147.347 31.5692 146.393 30.5557C145.348 29.423 146.512 28.4393 147.168 27.5748C148.928 25.2199 150.868 23.014 152.866 20.8976C153.523 20.1822 153.553 19.7648 152.687 19.1687C151.405 18.334 150.211 17.3503 149.107 16.2474C148.69 15.8002 148.272 15.2935 148.511 14.6675C148.779 13.9521 149.465 13.8925 150.122 13.8925C152.27 13.8925 154.358 14.3694 156.417 14.9358C157.342 15.2041 157.789 14.9656 158.207 14.2204C159.4 12.1039 160.593 9.98748 161.846 7.90085C162.473 6.88734 163.04 5.4267 164.591 5.90364C166.053 6.35078 165.606 7.87104 165.695 9.00378C165.755 9.36149 165.725 9.65958 165.725 10.375Z" fill="#FDEA2E"/>
<path d="M40.0349 57.2047C40.7807 58.397 41.5266 59.2913 43.2271 58.6653C44.3608 58.248 45.4646 58.9634 46.3298 59.7384C47.3442 60.6327 48.2989 61.5568 49.1939 62.5703C50.3872 63.8819 51.6999 64.9848 53.3706 65.6108C55.3993 66.3561 57.0402 67.6378 58.0844 69.5158C60.8291 74.6728 65.3638 78.2797 69.3019 82.3635C74.8212 88.0868 79.8333 94.2573 85.2034 100.1C90.7525 106.121 96.7491 111.606 103.939 115.601C104.804 116.078 105.789 117.091 106.773 116.376C107.967 115.481 109.041 114.289 109.16 112.62C109.518 108.446 109.458 104.303 108.623 100.16C108.205 98.1325 105.819 96.8209 104.058 97.8046C102.119 98.8777 100.12 99.0268 98.0319 98.371C95.5259 97.5661 94.601 95.7776 95.4066 93.2736C95.8541 91.8726 96.5999 90.6504 97.5546 89.5773C98.1214 88.9215 98.2408 88.3551 97.9723 87.4608C97.1071 84.5992 96.8386 81.6183 97.2861 78.6374C97.4353 77.5642 97.8231 76.4911 98.8375 76.0738C99.7921 75.6565 100.001 75.2093 99.8816 74.2256C99.7026 72.765 100.359 71.513 101.463 70.5293C103.462 68.7706 105.819 67.8167 108.474 67.608C110.145 67.459 111.845 67.3099 113.516 67.0715C115.395 66.8032 117.096 66.2368 118.11 64.4483C118.349 64.0309 118.707 63.9117 119.124 64.1204C119.572 64.3588 119.751 64.7464 119.572 65.2531C119.154 66.4157 118.707 67.5484 118.229 68.7706C121.631 68.234 124.942 67.5782 128.284 67.1907C132.132 66.7436 136.01 66.5051 139.859 66.1772C140.366 66.1474 140.873 66.1176 141.172 66.6541C141.47 67.1907 141.112 67.608 140.814 67.9956C138.367 71.1851 136.428 74.7324 134.429 78.22C134.101 78.8162 133.952 79.2932 134.34 79.9788C138.845 87.9974 141.5 96.642 143.29 105.585C143.737 107.791 145.647 108.894 146.691 110.652C146.96 111.099 147.526 110.712 147.914 110.563C159.937 106.062 171.125 100.219 180.135 90.8293C184.133 86.656 188.548 82.9597 193.142 79.472C194.694 78.2797 196.335 77.2662 198.214 76.6998C199.288 76.3421 200.004 75.7161 200.482 74.7026C202.63 69.9629 206.359 67.9061 211.49 68.3533C212.266 68.4129 212.564 68.0254 212.952 67.5782C214.175 66.0878 215.309 64.5079 216.741 63.1665C217.397 62.5703 218.024 61.7655 218.829 61.527C220.619 60.9904 221.127 59.649 221.693 58.1288C222.171 56.7873 222.946 55.5652 223.603 54.2834C225.542 51.6602 227.839 49.4543 230.733 47.9043C231.24 47.636 231.389 47.3081 231.419 46.7715C231.747 43.2242 232.105 39.677 232.463 36.1297C232.523 35.921 232.583 35.7124 232.642 35.4739C233.299 35.4143 233.895 35.4739 234.343 36.0701C233.806 39.5875 233.537 43.1348 233.209 46.7417C235.536 46.2648 237.655 45.6686 239.862 46.1753C241.593 46.5628 242.726 47.6062 242.935 49.0072C243.174 50.6765 242.428 51.8987 241.056 52.7631C239.683 53.6574 238.132 53.9853 236.581 54.2834C232.732 55.0286 232.493 55.3267 232.135 59.2019C232.016 60.5731 232.493 61.2885 233.806 61.4972C238.371 62.153 242.965 62.6895 247.589 62.8088C248.753 62.8386 249.409 62.302 249.588 61.0798C249.886 58.9336 250.304 56.7575 250.632 54.6113C250.692 54.2238 250.752 53.8661 250.304 53.5978C248.604 52.5247 248.753 50.8554 249.021 49.2159C249.081 48.7687 249.29 48.3514 249.141 47.9043C248.633 46.4138 249.021 44.9234 250.065 44.0589C251.557 42.7771 251.617 41.227 251.647 39.5577C251.676 38.8125 251.647 38.0375 251.885 37.3519C252.303 36.1595 251.796 36.0701 250.811 36.0701C245.382 36.0999 239.982 36.0999 234.552 36.0999C234.313 35.1162 234.611 34.1325 234.641 33.1488C234.671 31.9266 235.327 31.4199 236.521 31.3304C238.669 31.1516 240.787 31.241 242.905 31.39C245.62 31.5689 248.335 31.8968 250.99 32.6718C251.527 32.8209 252.422 32.9103 252.273 33.6555C251.975 35.2652 253.019 35.6825 254.123 36.1297C253.586 36.7557 254.003 36.8749 254.57 37.0836C256.957 37.9778 257.643 39.8856 256.39 42.1511C256.062 42.7473 256.241 43.105 256.36 43.7012C256.897 46.3244 258.3 48.9774 256.39 51.6304C256.122 51.9881 256.122 52.2564 256.241 52.7035C257.106 55.6844 255.406 58.5163 252.392 59.0528C251.796 59.1721 251.527 59.3211 251.497 59.9471C251.468 60.4241 251.348 60.9308 251.259 61.4078C250.871 63.6136 249.857 64.8358 247.709 64.5377C244.815 64.1502 242.905 64.955 241.414 67.4292C240.548 68.86 238.878 69.6052 237.505 70.5889C236.849 70.8274 236.193 71.0659 235.566 71.3044C235.298 71.3938 234.88 71.4534 234.88 71.7813C234.88 73.9574 233.15 75.0603 231.956 76.4315C229.629 79.1143 227.123 81.6779 226.497 85.404C226.377 86.03 226.019 86.5964 225.721 87.1628C223.364 91.9024 220.888 96.6122 218.71 101.441C215.011 109.698 209.551 117.002 205.434 125.02C203.346 129.074 200.959 132.979 199.02 137.093C197.737 139.418 196.454 141.773 195.141 144.098C194.813 144.664 194.574 145.588 193.65 145.052C192.755 144.545 193.321 143.86 193.65 143.263C198.244 134.768 202.719 126.183 207.522 117.777C210.894 111.874 214.742 106.241 217.487 99.9806C219.814 94.7044 222.708 89.7263 225.065 84.4799C226.139 82.0654 225.989 80.1576 224.14 78.1604C222.051 75.9248 219.874 73.8679 217.367 72.139C215.19 70.6486 212.743 70.0524 210.178 70.0524C206.687 70.0226 204.002 71.5428 202.51 74.7324C201.585 76.6998 200.243 77.922 198.154 78.6672C194.604 80.0086 191.949 82.6914 189.055 85.0463C185.087 88.2955 181.537 91.9918 177.808 95.5093C171.722 101.233 164.532 105.227 157.043 108.744C154.03 110.146 150.957 111.427 147.825 112.53C146.661 112.948 145.945 112.769 145.199 111.725C143.767 109.669 143.708 109.728 141.649 111.248C136.488 115.124 130.611 116.912 124.286 117.777C119.423 118.432 114.679 118.552 110.145 116.316C109.578 116.048 109.369 116.346 109.041 116.674C107.012 118.79 106.475 118.909 103.879 117.568C97.1369 114.08 91.4685 109.192 86.2476 103.766C79.7438 97.0594 73.9858 89.6965 67.482 82.9895C66.408 81.8866 65.334 80.7836 64.1705 79.7701C61.3363 77.296 58.9794 74.4343 57.0999 71.1851C55.996 69.2773 54.5341 67.8465 52.3861 67.0715C50.6259 66.4455 49.2237 65.2531 48.0005 63.8223C47.0458 62.7194 46.0613 61.7058 44.868 60.8414C43.9431 60.1558 42.9884 60.1558 42.1531 60.9308C37.7377 65.1041 33.5609 69.486 30.9057 75.0603C29.9809 76.9979 30.0107 78.9057 31.0847 80.7538C31.5919 81.6183 32.0394 82.4827 32.6659 83.2876C37.0813 89.1003 40.4227 95.5093 43.6746 101.978C49.7607 114.021 56.4137 125.765 62.649 137.749C63.902 140.163 65.1252 142.608 66.3782 145.022C66.7064 145.648 67.0942 146.423 66.229 146.811C65.3042 147.258 65.0953 146.364 64.797 145.767C62.0523 140.312 59.2777 134.887 56.2347 129.581C56.0855 129.223 55.9363 128.836 55.7573 128.508C51.4911 120.459 47.1353 112.441 42.9288 104.363C39.289 97.3276 35.7686 90.2331 30.9057 83.8838C29.8019 82.4231 28.6383 80.7836 28.6383 78.9653C28.6383 76.7892 27.5345 75.5372 26.1024 74.2853C25.5356 73.8083 25.0583 73.2121 24.5511 72.7054C23.7157 71.364 22.7909 70.112 22.3732 68.5321C22.1345 67.608 20.8815 67.3099 20.255 66.5945C19.4793 65.7002 18.7036 65.8195 17.6595 66.1176C14.8252 66.982 12.1402 66.3561 9.75348 64.6271C9.1568 64.2098 8.82863 64.0906 8.14245 64.5675C6.44192 65.7897 4.02537 65.4022 2.116 63.7925C0.266303 62.2424 -0.330375 60.2154 0.564642 58.248C0.862981 57.622 0.773479 57.1749 0.534808 56.5787C-0.211039 54.6709 -0.300541 52.7929 1.07182 51.0938C1.34032 50.7659 1.42982 50.4082 1.45966 50.0207C1.69833 47.7254 2.83202 45.907 4.59222 44.4762C5.93474 43.4031 7.3071 42.3598 8.67946 41.3165C11.9015 38.7827 17.8981 39.2 21.329 42.0617C21.9555 42.5982 22.5821 42.8963 23.4174 43.0454C25.7743 43.4925 27.624 44.7445 28.9665 46.7119C30.0107 48.2322 30.9952 49.7822 31.9797 51.3323C32.3079 51.839 32.5167 52.2862 33.3521 52.1073C34.3664 51.8987 35.1123 52.6439 35.8283 53.2699C37.2305 54.5517 38.6327 55.8931 40.0349 57.2047ZM138.367 68.234C138.069 68.1744 137.95 68.1148 137.801 68.1148C130.939 68.3831 124.166 69.4264 117.424 70.7678C116.976 70.8572 116.618 71.0361 116.29 71.3938C113.546 74.5237 109.965 76.2825 106.057 77.445C104.625 77.8623 103.611 78.1604 104.446 79.9192C104.566 80.1576 104.476 80.5153 104.446 80.8134C104.208 83.4664 104.297 86.03 105.908 88.3849C106.445 89.1898 106.117 89.8456 104.983 89.6965C103.879 89.5773 102.865 89.1898 101.881 88.683C101.523 88.5042 101.224 88.2657 100.806 88.6532C99.1656 90.2033 97.6441 91.813 96.9878 94.0486C96.5701 95.5093 97.0474 96.2843 98.5391 96.7315C100.538 97.3575 102.388 97.0296 103.999 95.718C104.953 94.9429 105.878 94.0785 106.773 93.214C107.579 92.439 108.175 92.588 108.563 93.6015C108.772 94.1083 108.951 94.615 109.13 95.1516C110.98 101.024 111.517 107.016 110.831 113.097C110.682 114.438 111.189 114.855 112.293 115.302C116.201 116.823 120.169 116.435 124.196 115.928C130.372 115.153 136.1 113.246 141.052 109.4C141.768 108.834 142.007 108.327 141.828 107.403C139.978 97.8642 137.234 88.6234 132.371 80.1278C131.953 79.4124 131.983 78.8758 132.371 78.1902C133.355 76.5209 134.25 74.8218 135.265 73.1525C136.279 71.5428 137.323 69.9331 138.367 68.234ZM9.93248 62.4511C11.3347 63.703 12.5579 64.3588 14.0794 64.5973C15.4219 64.806 17.1224 65.0146 17.8981 64.0309C19.0318 62.5703 21.2992 62.6001 21.9257 60.6327C22.045 60.275 22.5821 60.1856 22.9699 60.4241C23.4771 60.6923 23.5069 61.1395 23.2682 61.5866C22.9997 62.0934 22.6119 62.5703 22.2837 63.0771C22.1047 63.3751 21.508 63.554 21.9257 64.0309C22.224 64.3588 22.6119 64.7166 22.9997 64.7762C23.4771 64.8358 23.4174 64.2098 23.5666 63.8819C25.1776 60.0663 27.087 56.4296 30.3687 53.7468C30.846 53.3593 30.9654 53.0612 30.6074 52.5247C29.4737 50.8554 28.4295 49.0966 27.2361 47.4571C26.0129 45.758 24.2527 44.8637 22.1644 44.7445C19.3003 44.5955 16.8241 45.4301 14.4971 47.2783C12.4684 48.888 11.3645 50.7659 11.1258 53.2401C11.0363 54.3132 11.6032 54.6709 12.6175 54.4622C13.3634 54.3132 14.0197 53.8959 14.5567 53.4189C15.6606 52.4352 16.7048 51.3621 17.8086 50.3486C18.286 49.9015 18.823 49.186 19.539 49.9015C20.2252 50.5871 19.5092 51.0342 19.1512 51.5112C18.0175 53.0314 16.4661 54.4026 17.1523 56.6681C17.2716 57.0854 16.9733 57.4431 16.5556 57.5624C16.1081 57.7114 15.7203 57.5326 15.5711 57.1153C15.3622 56.5787 15.2429 56.0123 15.0937 55.4161C14.4374 55.6546 13.8109 55.9527 13.1545 56.1614C11.991 56.5191 11.454 57.7114 11.6032 58.4865C11.9314 60.1558 11.1557 61.2885 9.93248 62.4511ZM24.1931 67.5186C24.1632 68.2638 24.2527 68.7408 24.4616 69.1879C25.4163 71.2745 27.087 72.765 28.6682 74.3747C29.2052 74.9112 29.2947 74.3449 29.4737 74.017C30.0405 73.0333 30.5179 71.99 31.1444 71.0361C33.4714 67.3696 36.3355 64.1204 39.468 61.1395C40.2139 60.4241 40.2437 59.9471 39.4979 59.2615C38.1255 57.9797 36.8426 56.5787 35.4703 55.2671C33.6206 53.5382 33.2626 53.5382 31.383 55.1479C28.5488 57.5624 26.8185 60.7221 25.4163 64.0906C24.8793 65.2531 24.4019 66.4455 24.1931 67.5186ZM238.192 47.6658C230.852 47.9043 224.766 53.4785 222.708 60.275C222.559 60.7818 222.767 60.9606 223.185 61.1693C227.153 63.1665 230.465 65.9685 233.418 69.2177C233.925 69.7841 234.373 69.8139 234.969 69.6052C237.386 68.7706 239.355 67.3397 240.936 65.3425C241.175 65.0445 241.622 64.7464 241.443 64.3588C241.264 63.9117 240.727 64.1502 240.369 64.0906C237.923 63.6136 235.417 63.7329 233 63.0771C230.972 62.5107 230.405 61.676 230.375 59.7086C230.375 59.3807 230.614 58.9336 230.196 58.7547C228.227 57.8903 229.42 56.6383 229.987 55.744C231.121 53.9555 233.03 53.2997 234.999 52.7929C236.252 52.465 237.535 52.2862 238.758 51.8689C239.982 51.4515 241.414 50.9448 241.145 49.3053C240.847 47.636 239.266 47.8446 238.192 47.6658ZM214.324 68.6812C215.16 69.0389 215.965 69.3071 216.711 69.7245C220.59 71.9005 223.841 74.792 226.407 78.3691C227.064 79.2932 227.332 79.1739 227.959 78.3989C229.301 76.7594 230.673 75.0901 232.165 73.5698C233.269 72.4371 233.239 71.5428 232.195 70.4101C229.51 67.5186 226.467 65.0743 223.096 63.0174C221.634 62.153 220.411 62.302 219.158 63.3155C217.278 64.8656 215.786 66.7436 214.324 68.6812ZM5.84524 45.609C3.84637 47.3975 2.71268 49.2755 3.33919 51.69C3.99554 54.2238 5.75574 55.8633 8.17228 56.7277C8.64962 56.9066 9.27614 56.8768 9.78331 56.7575C10.4098 56.6085 10.9767 56.221 10.2607 55.5354C9.39547 54.6709 9.27614 53.6276 9.39547 52.5247C9.42531 52.1669 9.69381 51.7198 9.1568 51.4813C6.56125 50.5275 5.90491 48.411 5.84524 45.609ZM19.6583 42.8963C18.8528 42.5386 18.465 42.3002 18.0473 42.1511C15.5711 41.2568 13.0949 41.078 10.6485 42.1213C7.84411 43.3435 6.77009 46.6821 8.41095 48.9178C9.27614 50.0803 9.78331 50.0207 10.5888 48.8581C11.3048 47.8148 11.9314 46.8609 11.3943 45.4897C11.0662 44.6253 11.275 43.7608 12.2595 43.3733C13.244 42.9858 13.9004 43.4329 14.2584 44.3272C14.3777 44.6253 14.4672 44.8935 14.8551 44.6253C16.2274 43.7906 17.749 43.3435 19.6583 42.8963ZM1.90717 53.3593C1.63866 56.6383 4.74139 60.6327 7.60544 61.0202C8.53029 61.1395 9.27614 60.8712 9.72364 60.0067C10.0817 59.2317 10.0817 58.6355 8.9778 58.6355C7.96345 58.6355 7.0386 58.3374 6.17341 57.8307C4.41321 56.8172 3.13036 55.3267 1.90717 53.3593ZM251.766 47.8446C253.347 47.8744 255.257 46.5628 255.197 45.4301C255.167 44.4166 254.57 43.9098 253.586 43.88C252.273 43.8502 250.781 45.3705 250.722 46.7417C250.692 47.4571 251.05 47.8148 251.766 47.8446ZM255.585 48.2023C254.302 49.037 253.108 49.6034 251.766 49.5736C250.811 49.5438 250.573 49.8717 250.632 50.7361C250.722 51.5708 250.931 52.1669 251.915 52.1371C253.884 52.0775 255.495 50.4678 255.585 48.2023ZM1.937 59.1423C1.758 61.1693 2.71268 62.2424 4.05521 62.9876C5.33806 63.703 6.20325 63.6434 7.3071 62.8088C5.15906 62.2424 3.54803 60.9308 1.937 59.1423ZM254.809 54.2834C254.839 53.3891 254.72 53.2103 254.272 53.2103C252.959 53.2401 252.303 54.1642 252.124 56.2806C252.094 56.6085 251.766 57.2643 252.452 57.1451C253.705 56.9662 254.332 55.9825 254.72 54.8498C254.779 54.6411 254.809 54.4026 254.809 54.2834ZM253.347 40.601C253.675 40.9886 252.691 41.9126 253.765 42.0319C254.6 42.1213 254.958 41.2866 255.137 40.5712C255.197 40.3328 255.197 40.0943 255.197 39.8558C255.167 39.051 254.66 38.7231 253.944 38.6933C253.138 38.6933 253.496 39.3789 253.377 39.7962C253.347 40.0347 253.347 40.2731 253.347 40.601Z" fill="#244C5A"/>
<path d="M134.907 149.225C134.429 149.404 134.101 149.523 133.773 149.642C131.118 150.626 128.97 149.553 128.343 146.781C127.568 143.323 128.075 139.865 128.85 136.467C129.328 134.35 130.014 132.264 130.521 130.147C130.82 128.806 131.178 127.435 130.461 126.063C130.223 125.616 130.372 125.169 130.82 124.931C131.386 124.633 131.774 124.931 132.073 125.408C132.639 126.302 132.669 127.286 132.61 128.299C132.431 130.684 131.685 132.979 130.999 135.245C130.103 138.255 129.716 141.355 129.775 144.515C129.805 145.32 129.895 146.095 130.193 146.84C130.67 148.092 131.536 148.48 132.789 148.152C132.968 148.092 133.176 148.033 133.355 147.943C136.398 146.214 137.055 148.092 136.697 150.656C136.577 151.58 136.309 152.504 136.16 153.428C136.011 154.412 136.398 154.799 137.443 154.591C141.381 153.875 142.693 154.769 143.469 158.734C144.096 161.983 143.678 165.262 143.529 168.541C143.499 169.108 143.171 169.525 142.604 169.465C141.977 169.406 141.739 168.899 141.769 168.273C141.858 166.335 141.977 164.398 142.007 162.46C142.037 160.821 141.918 159.181 141.351 157.631C140.724 155.962 140.158 155.694 138.397 156.171C135.384 156.975 133.922 155.574 134.549 152.474C134.728 151.461 135.056 150.447 134.907 149.225Z" fill="#244C5A"/>
<path d="M130.282 121.056C129.805 121.92 129.417 122.725 128.97 123.5C125.36 129.7 116.499 130.624 111.666 125.289C110.592 124.096 109.727 122.755 109.011 121.354C108.742 120.817 108.653 120.281 109.279 119.953C109.846 119.655 110.204 120.012 110.502 120.459C110.831 120.996 111.159 121.562 111.487 122.129C113.724 125.974 117.245 127.256 121.481 126.928C123.928 126.749 125.688 125.289 127.03 123.321C127.806 122.159 128.403 120.907 128.94 119.625C129.536 118.224 130.014 118.164 131.058 119.237C132.699 120.907 134.549 122.129 136.935 122.486C140.306 122.993 142.186 121.92 143.439 118.731C143.887 117.568 144.095 116.346 144.185 115.094C144.215 114.527 144.453 114.08 145.05 114.08C145.736 114.08 146.005 114.587 145.945 115.183C145.706 118.194 144.99 121.026 142.544 122.993C139.948 125.08 137.025 124.484 134.19 123.5C132.729 122.993 131.535 122.01 130.282 121.056Z" fill="#244C5A"/>
<path d="M163.309 140.67C163.309 142.25 163.309 143.83 163.249 145.409C163.219 146.125 163.249 147.109 162.205 147.049C161.101 146.959 161.429 146.006 161.519 145.29C161.668 143.949 161.608 142.637 161.549 141.296C161.519 140.431 161.131 140.193 160.355 140.193C158.953 140.193 157.581 140.103 156.179 140.074C155.522 140.074 154.747 140.074 154.717 139.209C154.717 138.196 155.552 138.285 156.268 138.315C157.611 138.345 158.953 138.374 160.296 138.464C161.012 138.524 161.34 138.374 161.221 137.599C161.191 137.51 161.191 137.391 161.191 137.301C161.191 136.556 160.803 135.453 161.937 135.364C163.219 135.274 162.832 136.497 162.981 137.272C163.04 137.51 163.011 137.778 163.04 138.017C163.07 138.345 163.219 138.583 163.607 138.553C164.055 138.524 163.995 138.166 163.965 137.898C163.876 137.212 163.846 136.437 164.681 136.377C165.606 136.288 165.726 137.123 165.726 137.838C165.755 138.762 166.412 138.643 166.979 138.643C167.665 138.643 168.351 138.732 168.351 139.597C168.321 140.431 167.605 140.461 167.008 140.372C166.024 140.252 165.994 140.759 166.084 141.504C166.173 142.13 166.143 142.786 166.143 143.442C166.143 144.008 165.815 144.456 165.248 144.396C164.741 144.336 164.174 144.068 164.204 143.353C164.234 142.607 164.234 141.862 164.264 141.117C164.293 140.64 164.323 140.163 163.577 140.342C163.339 140.342 163.219 140.431 163.309 140.67Z" fill="#244C5A"/>
<path d="M234.343 36.0404C233.925 35.4741 233.299 35.3846 232.643 35.4443C232.762 34.3115 232.851 33.1788 233.03 32.046C233.239 30.7344 234.015 29.8402 235.357 29.6911C241.145 29.0353 246.844 29.5123 252.393 31.2412C253.586 31.5989 254.063 32.4932 254.093 33.7451C254.123 34.5202 253.735 35.2952 254.183 36.0404H254.123C252.989 35.5933 251.975 35.176 252.273 33.5663C252.422 32.8211 251.498 32.7316 250.99 32.5826C248.365 31.8075 245.65 31.5095 242.905 31.3008C240.787 31.1517 238.639 31.0623 236.521 31.2412C235.328 31.3306 234.671 31.8374 234.641 33.0595C234.612 34.0432 234.313 35.0269 234.552 36.0106C234.462 36.0702 234.403 36.0404 234.343 36.0404Z" fill="#244C5A"/>
<path d="M262.685 40.6903C262.088 40.3028 260.895 40.7201 260.865 39.4979C260.835 38.6931 261.522 38.544 262.148 38.7527C262.864 38.9912 264.057 38.7527 263.998 40.0047C263.968 40.6009 263.371 40.8095 262.685 40.6903Z" fill="#244C5A"/>
<path d="M147.735 158.168C147.467 158.734 147.855 159.837 146.691 160.016C146.005 160.105 145.677 159.539 145.826 158.943C146.005 158.197 145.736 157.094 146.9 156.945C147.497 156.886 147.825 157.363 147.735 158.168Z" fill="#244C5A"/>
<path d="M133.236 140.759C132.878 141.296 132.997 142.399 131.864 142.458C131.356 142.488 130.969 142.071 131.088 141.564C131.297 140.789 131.386 139.775 132.401 139.626C132.938 139.537 133.296 139.984 133.236 140.759Z" fill="#244C5A"/>
<path d="M64.29 35.9805C65.2149 34.4603 65.2149 34.4603 66.6469 35.9805C65.8712 35.9805 65.0657 35.9805 64.29 35.9805Z" fill="#244C5A"/>
<path d="M163.309 140.669C163.219 140.431 163.338 140.372 163.547 140.372C163.487 140.461 163.398 140.55 163.309 140.669Z" fill="#244C5A"/>
<path d="M258.568 21.553C258.628 22.3281 256.54 24.5041 255.913 24.4445C255.078 24.3551 254.75 23.7589 255.227 23.1031C255.794 22.3281 256.54 21.6425 257.315 21.0463C258.002 20.5693 258.389 21.0761 258.568 21.553Z" fill="#244C5A"/>
<path d="M225.632 36.0702C226.169 36.6962 227.004 36.5471 227.631 36.875C228.078 37.1135 228.376 37.3818 228.227 37.9183C228.108 38.3357 227.78 38.6338 227.332 38.5443C226.497 38.3655 225.661 38.1866 224.916 37.8587C223.931 37.4414 224.707 36.6664 224.707 36.0702C225.035 35.6827 225.333 35.6827 225.632 36.0702Z" fill="#244C5A"/>
<path d="M261.313 34.2811C260.597 34.3407 260.06 34.132 260.149 33.5358C260.418 32.0156 261.85 32.5223 262.805 32.1944C263.401 31.9858 263.998 32.4031 263.879 33.0291C263.521 34.4599 262.029 33.8041 261.313 34.2811Z" fill="#244C5A"/>
<path d="M232.165 22.6856C232.136 23.3712 231.778 23.7289 231.211 23.6395C230.107 23.4606 230.226 22.4173 230.017 21.6721C229.868 21.1057 230.286 20.6288 230.823 20.6884C231.986 20.8374 231.778 22.0298 232.165 22.6856Z" fill="#244C5A"/>
<path d="M228.436 23.0432C229.271 23.4307 229.808 24.176 230.077 25.0702C230.226 25.5472 229.838 25.9645 229.301 25.9049C228.197 25.7856 227.839 24.8019 227.481 23.9971C227.272 23.4903 227.809 23.1624 228.436 23.0432Z" fill="#244C5A"/>
<path d="M197.528 36.0405C197.528 35.951 197.498 35.8318 197.498 35.7424C197.946 35.7424 198.423 35.3548 198.751 35.9808C198.363 35.9808 197.946 36.0107 197.528 36.0405Z" fill="#244C5A"/>
<path d="M203.524 34.4901C203.703 34.3112 203.912 34.3411 204.121 34.4305C203.972 34.7882 203.763 34.8478 203.524 34.4901Z" fill="#244C5A"/>
<path d="M204.121 35.9804C203.912 35.9804 203.733 35.9804 203.524 35.9804C203.733 35.7419 203.942 35.7419 204.121 35.9804Z" fill="#244C5A"/>
<path d="M197.618 38.9912C197.618 38.8123 197.618 38.6037 197.588 38.4248C197.857 38.6037 197.857 38.8123 197.618 38.9912Z" fill="#244C5A"/>
<path d="M123.301 93.7205C122.138 93.6906 121.034 93.482 120.049 92.856C119.542 92.5281 119.005 92.081 119.423 91.4252C119.811 90.7396 120.378 90.978 120.944 91.3357C122.705 92.3492 124.435 92.23 126.106 91.0973C126.851 90.5905 127.209 89.8453 127.329 88.9808C127.418 88.3548 127.508 87.699 128.343 87.8481C129.268 87.9971 129.089 88.7423 128.999 89.3683C128.641 91.9021 126.285 93.7205 123.301 93.7205Z" fill="#244C5A"/>
<path d="M124.077 76.3118C124.316 76.4012 124.823 76.4608 125.241 76.6993C125.807 76.9974 126.494 77.3253 126.046 78.1599C125.658 78.9052 125.091 78.6369 124.525 78.309C123.6 77.7724 123.033 78.2196 122.615 79.0542C122.317 79.6504 121.989 80.3062 121.183 79.8292C120.437 79.3821 120.825 78.6965 121.124 78.1301C121.72 76.9676 122.735 76.3118 124.077 76.3118Z" fill="#244C5A"/>
<path d="M112.501 83.5857C112.531 81.8568 114.082 80.3961 115.783 80.5154C116.409 80.5452 117.036 80.6644 117.066 81.4395C117.096 82.2741 116.499 82.3337 115.843 82.3039C114.828 82.2741 114.232 82.7809 114.321 83.8242C114.381 84.5396 114.351 85.2252 113.456 85.1656C112.561 85.1358 112.561 84.3011 112.501 83.5857Z" fill="#244C5A"/>
<path d="M100.717 94.4362C100.21 94.4064 99.8521 94.1679 99.7924 93.7506C99.6731 92.7371 100.628 92.5583 101.195 92.0515C101.642 91.664 102.119 91.2467 102.746 91.7832C103.014 92.0217 103.223 92.3496 102.985 92.7073C102.388 93.542 101.523 93.9891 100.717 94.4362Z" fill="#244C5A"/>
</svg>
