<svg width="434" height="399" viewBox="0 0 434 399" fill="none" xmlns="http://www.w3.org/2000/svg">
<g clip-path="url(#clip0)">
<path d="M134.727 26.6986C136.259 23.1827 139.214 21.0402 142.169 18.9527C148.352 14.5029 154.973 10.6574 162.142 8.18533C168.763 5.93298 175.549 4.17505 182.608 3.13127C194.208 1.42828 205.864 1.04373 217.574 0.439437C224.579 0.0548894 231.583 -0.0549815 238.587 0.16476C245.428 0.384502 252.322 1.04373 259.108 2.03257C262.665 2.58192 266.276 2.96647 269.888 3.40595C274.211 3.90037 278.26 5.54843 282.419 6.86688C287.399 8.46001 292.214 10.3278 296.975 12.745C301.845 15.2171 306.606 17.9089 310.601 21.3149C316.784 26.5887 322.749 32.1921 327.619 38.9492C331.832 44.8822 335.389 51.1448 338.454 57.6822C341.956 65.3182 344.747 73.174 346.334 81.5241C347.537 87.8417 348.96 94.1044 349.836 100.422C349.945 101.246 349.945 102.07 349.945 102.894C349.945 110.42 350.383 118.001 349.945 125.527C349.726 129.703 349.398 133.823 348.468 137.943C347.592 141.898 347.319 146.018 346.005 149.864C344.035 155.522 342.011 161.126 339.056 166.344C334.623 174.31 328.44 180.683 321.545 186.451C320.615 187.22 319.63 187.824 318.426 187.989C313.993 180.298 308.029 173.98 301.079 168.487C299.93 167.608 298.726 166.674 298.617 165.026C298.398 161.565 297.741 158.049 298.124 154.698C299.219 144.81 300.587 134.921 303.487 125.363C304.417 122.341 306.934 120.693 309.944 121.133C314.212 121.682 318.48 121.847 322.639 120.309C326.962 118.661 329.096 115.749 329.315 111.519C329.479 107.014 327.345 103.883 323.351 102.345C321.052 101.466 320.998 100.532 321.545 98.3893C323.077 92.2915 323.515 86.0289 319.794 80.6452C317.495 77.3491 313.939 74.9319 312.625 70.8667C312.406 70.1525 311.367 69.6032 310.601 69.0538C307.919 67.186 304.855 66.9663 301.681 66.9663C297.851 66.9663 294.02 67.186 290.573 64.9336C290.244 64.7139 289.697 64.8787 289.259 64.8238C287.289 64.604 286.359 65.6478 287.289 67.2959C288.274 68.9989 287.235 69.713 286.468 70.7568C275.962 72.7345 265.729 75.6461 255.879 79.8211C254.73 80.3156 253.307 80.5902 253.089 82.1284C252.87 83.8864 254.347 84.4357 255.442 85.1499C260.64 88.5009 265.893 91.7971 271.147 95.0932C272.405 95.8623 273.007 96.4116 271.967 98.0048C265.346 108.443 259.655 119.375 255.059 130.856C253.8 133.933 252.158 136.515 249.751 138.932C242.308 146.238 235.851 154.423 228.956 162.224C226.22 165.356 223.484 168.487 220.529 171.893C220.037 170.465 219.709 169.476 219.271 168.487C217.793 164.916 216.261 161.345 211.938 160.302C210.789 160.027 211.117 159.038 211.008 158.269C210.625 155.083 210.242 151.896 209.859 148.71C209.749 147.831 209.804 146.678 208.983 146.238C207.396 145.414 207.56 144.041 207.725 142.722C207.889 140.799 208.108 138.877 208.381 137.009C209.476 129.977 211.665 123.11 212.485 116.024C213.47 107.728 210.625 101.246 203.347 97.0709C198.696 94.379 193.88 91.9069 189.119 89.4348C179.653 84.4907 169.967 80.0409 161.868 72.8443C160.719 71.8006 159.296 71.0864 157.819 70.592C153.934 69.4383 149.556 71.5808 148.571 75.2615C147.86 77.9533 148.626 80.5353 149.884 82.9525C151.854 86.7979 154.919 89.6546 158.311 92.1816C161.814 94.8185 165.589 96.9061 169.529 99.0486C162.744 102.509 162.032 103.498 161.102 111.299C160.993 112.343 160.336 112.398 159.734 112.673C157.326 113.606 155.849 115.474 155.356 117.891C154.262 123.33 155.521 128.274 159.406 132.284C160.336 133.218 160.938 134.207 161.43 135.416C163.565 141.239 167.395 143.986 173.086 143.986C177.683 143.986 178.285 144.48 178.613 148.985C179.215 156.621 178.011 164.312 178.394 171.948C178.503 173.816 178.011 175.189 176.534 176.453C174.509 178.101 173.414 180.518 172.812 183.045C171.226 189.253 172.156 195.186 175.111 200.844C175.494 201.558 176.534 202.162 175.603 203.206C172.484 206.942 172.211 211.392 172.977 215.951C173.141 216.94 172.922 217.544 171.937 217.764C166.191 219.247 160.555 219.577 155.466 215.786C150.267 211.941 147.422 206.392 144.85 200.734C140.746 191.725 137.791 182.331 134.289 173.102C132.155 167.553 129.802 162.005 125.15 158.049C123.235 156.456 122.36 154.808 121.976 152.446C121.32 148.49 119.678 144.645 119.623 140.69C119.569 135.8 120.718 130.856 123.016 126.406C125.588 121.352 127.558 116.024 129.145 110.585C130.787 104.982 132.319 99.3232 132.866 93.4451C133.085 90.9181 133.468 88.1713 131.772 86.0289C130.732 84.7104 130.841 83.6666 131.334 82.2932C133.96 74.3825 136.696 66.5268 139.651 58.7809C141.95 52.738 144.631 46.8049 145.561 40.3226C146.163 35.9827 144.631 32.6865 141.129 30.1046C138.995 28.6763 136.751 27.8522 134.727 26.6986Z" fill="#E4F4F1"/>
<path d="M289.15 64.8238C289.588 64.8238 290.135 64.7139 290.463 64.9336C293.911 67.131 297.741 66.9662 301.572 66.9662C304.691 66.9662 307.81 67.186 310.491 69.0538C311.203 69.5482 312.242 70.0976 312.516 70.8667C313.829 74.9868 317.386 77.349 319.684 80.6452C323.46 86.0288 322.968 92.2915 321.435 98.3893C320.888 100.532 320.998 101.466 323.241 102.345C327.236 103.883 329.425 107.014 329.206 111.519C329.042 115.694 326.853 118.66 322.53 120.309C318.426 121.847 314.103 121.682 309.835 121.133C306.77 120.748 304.253 122.396 303.377 125.363C300.477 134.921 299.109 144.81 298.015 154.698C297.632 158.104 298.288 161.565 298.507 165.026C298.617 166.674 299.821 167.608 300.97 168.487C307.919 173.926 313.884 180.298 318.316 187.989C324.609 198.976 328.549 210.787 330.464 223.312C330.629 224.191 330.738 225.125 330.847 226.004C331.012 227.268 330.629 228.257 329.315 228.531C327.893 228.806 327.181 227.927 326.908 226.554C326.032 221.994 325.321 217.379 324.117 212.875C320.888 200.514 315.58 189.143 307.044 179.529C304.8 177.002 302.228 174.75 299.547 172.717C295.771 169.915 293.911 166.344 294.13 161.675C294.184 160.356 293.965 159.697 292.378 159.752C281.981 160.082 272.788 156.456 264.033 151.127C263.321 150.688 262.555 149.644 261.68 150.193C260.859 150.688 261.625 151.677 261.625 152.446C261.57 156.017 260.75 159.532 260.202 163.048C259.874 165.411 259.655 167.773 260.257 170.135C261.078 173.486 262.665 174.695 266.112 174.64C269.067 174.585 271.858 173.651 274.594 172.662C279.464 170.904 284.225 168.762 289.259 167.498C289.971 167.333 290.682 167.114 291.393 167.004C292.543 166.894 293.363 167.388 293.582 168.597C293.801 169.75 293.363 170.629 292.16 170.904C284.772 172.552 278.041 176.233 270.709 178.046C270.38 178.156 269.997 178.265 269.669 178.32C260.804 180.023 255.442 175.409 255.989 166.29C256.153 163.653 256.591 161.016 256.919 158.159C255.113 159.093 254.402 160.741 253.198 161.895C251.83 163.158 250.517 164.422 248.82 165.136C245.865 166.454 243.622 165.301 242.856 162.169C242.308 160.082 242.582 157.994 242.91 155.907C243.02 154.918 243.129 153.929 243.293 152.775C241.652 152.94 241.159 154.314 240.393 155.193C234.702 161.73 229.066 168.322 223.375 174.859C222.499 175.848 221.788 176.727 222.335 178.211C229.723 197.658 239.299 215.896 253.417 231.278C258.615 236.936 265.018 240.782 273.062 240.672C275.196 240.617 277.221 240.342 279.191 239.354C279.026 238.42 278.041 238.585 277.549 238.145C275.688 236.772 274.43 235.014 274.703 232.597C274.922 230.509 276.236 229.355 278.151 228.751C280.449 228.037 282.747 228.367 284.061 230.344C285.702 232.761 286.523 231.608 287.727 230.124C289.533 227.927 291.065 225.565 292.05 222.873C292.543 221.5 293.254 220.181 295.005 220.95C296.756 221.719 296.264 223.093 295.716 224.466C294.622 227.323 293.09 229.905 291.175 232.212C288.822 235.069 285.867 237.266 283.897 240.562C282.31 243.309 278.917 244.078 275.743 244.463C265.51 245.671 257.576 241.112 250.571 234.3C242.473 226.389 237.001 216.72 231.364 207.052C225.181 196.449 219.873 185.462 216.699 173.486C215.988 170.739 215.057 168.047 213.306 165.74C212.212 164.312 211.336 163.543 209.585 165.575C203.675 172.277 195.795 175.519 187.259 177.332C186.164 177.551 185.125 177.716 184.03 177.826C179.27 178.265 177.519 179.639 176.424 184.363C175.111 190.296 176.096 195.845 179.926 200.679C181.075 202.107 181.185 203.206 179.762 204.415C176.534 207.161 176.041 210.732 176.698 214.633C177.464 219.247 179.324 223.532 181.13 227.817C183.538 233.53 186.219 239.134 187.916 245.122C188.244 246.33 188.517 247.649 188.572 248.912C188.627 250.066 187.861 250.78 186.712 250.89C185.672 250.945 184.906 250.341 184.687 249.352C182.936 240.068 178.066 231.992 174.947 223.258C174.399 221.719 174.016 221.17 172.156 221.664C161.212 224.576 152.949 221.5 146.492 212.051C140.855 203.81 137.791 194.416 134.289 185.187C131.772 178.43 129.856 171.399 125.916 165.246C125.26 164.257 124.548 163.323 123.837 162.334C122.305 160.247 120.39 159.368 117.708 159.697C110.868 160.466 104.247 161.84 97.8444 164.532C93.6856 166.29 91.7156 169.201 91.825 173.871C91.9892 183.484 94.2875 192.713 96.6952 201.888C97.4613 204.799 98.118 207.766 98.8294 210.677C98.9935 211.117 98.8294 211.501 98.501 211.776C97.4613 211.776 96.4216 211.776 95.3819 211.776C95.1083 211.446 94.8347 211.117 94.5611 210.732C93.5761 204.305 91.2778 198.207 90.074 191.835C88.7607 184.913 87.3379 177.991 88.0493 170.904C88.3229 168.267 89.0343 165.85 91.1684 164.147C92.3723 163.213 92.0986 162.114 91.9345 160.961C91.2231 155.962 90.1834 151.017 89.8004 146.018C89.089 137.119 88.6512 128.219 88.2134 119.265C87.8851 112.178 85.5321 105.476 84.6018 98.4992C83.8357 92.676 83.1791 86.743 85.5321 81.1945C86.8454 78.1181 87.7209 75.2065 87.5568 71.9104C87.4473 69.3834 88.3229 67.0212 90.2381 65.2632C90.457 65.0984 90.7853 64.8787 90.7853 64.6589C90.6759 60.374 93.6308 57.1328 94.6158 53.2873C95.765 48.6727 97.1877 44.3328 100.69 40.9268C102.058 39.6084 103.645 38.5646 105.56 38.7844C107.202 38.9492 107.804 38.235 108.351 36.9166C109.719 33.5106 111.47 30.3243 113.604 27.3578C116.559 23.2926 120.171 21.8642 125.096 23.2376C128.324 24.1166 131.443 25.435 134.617 26.5338C136.696 27.6874 138.885 28.5114 140.855 29.9398C144.357 32.4668 145.944 35.8178 145.288 40.1577C144.357 46.6401 141.676 52.5732 139.378 58.616C136.532 66.5268 133.796 74.3825 131.17 82.2932C130.732 83.6666 130.568 84.7104 131.607 86.0288C133.358 88.1713 132.975 90.9181 132.702 93.4451C132.155 99.3232 130.568 104.927 128.981 110.585C127.394 116.024 125.424 121.352 122.852 126.406C120.554 130.911 119.405 135.8 119.459 140.69C119.514 144.59 121.156 148.49 121.812 152.446C122.195 154.808 123.126 156.456 124.986 158.049C129.637 162.005 131.99 167.553 134.125 173.102C137.627 182.331 140.582 191.725 144.686 200.734C147.258 206.392 150.158 211.941 155.302 215.786C160.391 219.577 166.027 219.247 171.773 217.764C172.758 217.489 172.977 216.94 172.812 215.951C172.046 211.392 172.32 206.997 175.439 203.206C176.315 202.107 175.33 201.558 174.947 200.844C171.937 195.186 171.007 189.253 172.648 183.045C173.305 180.518 174.399 178.156 176.369 176.453C177.902 175.189 178.339 173.871 178.23 171.948C177.847 164.312 179.051 156.676 178.449 148.985C178.066 144.48 177.519 143.931 172.922 143.986C167.231 143.986 163.4 141.239 161.266 135.416C160.829 134.207 160.172 133.218 159.242 132.284C155.302 128.274 154.098 123.33 155.192 117.891C155.685 115.419 157.217 113.606 159.57 112.673C160.227 112.398 160.829 112.398 160.938 111.299C161.868 103.498 162.634 102.509 169.365 99.0485C165.425 96.9061 161.595 94.8185 158.147 92.1816C154.754 89.5996 151.745 86.7979 149.72 82.9524C148.462 80.5353 147.695 78.0083 148.407 75.2615C149.392 71.5808 153.715 69.3834 157.655 70.592C159.132 71.0315 160.555 71.8006 161.704 72.8443C169.803 79.9859 179.543 84.4906 188.955 89.4348C193.716 91.9069 198.531 94.379 203.183 97.0709C210.461 101.301 213.306 107.728 212.321 116.024C211.5 123.11 209.257 129.977 208.217 137.009C207.944 138.932 207.725 140.799 207.56 142.722C207.451 144.041 207.232 145.414 208.819 146.238C209.64 146.678 209.585 147.831 209.695 148.71C210.078 151.896 210.461 155.083 210.844 158.269C210.953 159.038 210.625 160.027 211.774 160.302C216.097 161.345 217.629 164.916 219.107 168.487C219.49 169.476 219.818 170.52 220.365 171.893C223.32 168.487 226.002 165.356 228.792 162.224C235.687 154.423 242.144 146.238 249.586 138.932C251.994 136.569 253.636 133.933 254.894 130.856C259.491 119.375 265.182 108.442 271.803 98.0048C272.843 96.3567 272.241 95.8623 270.982 95.0932C265.729 91.7971 260.476 88.5009 255.277 85.1499C254.183 84.4357 252.706 83.8314 252.924 82.1284C253.143 80.5902 254.621 80.3155 255.715 79.8211C265.565 75.646 275.798 72.7345 286.304 70.7568C287.618 70.592 288.931 70.4821 290.244 70.3173C290.135 68.2847 287.727 66.9662 289.15 64.8238ZM259.217 82.7876C264.854 86.4134 270.052 89.7095 275.196 93.1155C278.096 95.0382 278.151 95.5327 276.345 98.3344C268.465 110.585 262.063 123.605 256.645 137.119C256.153 138.327 255.879 139.261 256.919 140.305C266.605 149.644 277.877 155.302 291.448 155.852C293.309 155.907 293.856 155.138 294.075 153.27C295.279 141.404 297.632 129.812 301.079 118.386C302.009 115.254 302.392 115.035 305.457 115.914C310.491 117.397 315.635 118.166 320.779 116.518C323.843 115.584 325.211 113.716 325.211 110.97C325.211 108.058 323.46 106.355 320.943 105.586C316.018 104.158 311.038 102.949 306.278 106.3C305.566 106.794 304.91 106.685 304.362 105.97C303.87 105.366 304.089 104.762 304.527 104.267C307.317 101.026 308.083 97.1807 307.646 93.0606C307.098 88.2812 307.263 83.6117 309.999 79.3816C307.317 78.8323 304.8 78.3928 302.338 77.7336C299.766 77.0744 297.358 75.9207 295.169 74.4375C294.239 73.7782 293.199 74.0529 292.269 74.1628C280.996 75.3164 270.162 78.3928 259.217 82.7876ZM164.495 122.176C167.778 119.32 170.952 117.067 174.673 115.749C176.643 115.09 178.613 114.815 180.419 116.024C181.458 116.738 181.732 117.782 181.185 118.935C180.692 119.924 179.707 120.199 178.887 119.704C177.464 118.825 176.205 119.43 175.001 119.979C171.554 121.517 168.599 123.769 165.972 126.516C163.893 128.714 163.948 131.076 164.878 133.603C165.972 136.514 167.45 139.096 170.788 139.92C172.101 140.25 172.867 140.14 172.375 138.327C171.663 135.745 172.539 133.438 174.564 131.68C175.603 130.746 176.807 130.197 177.956 131.406C179.16 132.614 178.503 133.713 177.409 134.647C176.041 135.745 175.986 137.174 176.698 138.602C177.409 140.085 178.23 141.514 180.255 141.569C181.349 141.624 182.443 141.733 183.483 141.953C184.687 142.228 185.672 143.272 185.015 144.315C183.21 147.117 184.632 149.974 184.523 152.775C184.468 154.478 185.289 154.643 186.712 154.533C192.293 154.204 197.382 152.446 201.979 149.26C203.238 148.435 203.839 147.557 203.73 145.963C203.456 141.184 204.222 136.514 205.207 131.79C206.411 126.077 207.998 120.418 208.545 114.54C209.093 108.607 207.013 103.938 201.924 100.806C199.298 99.1584 196.616 97.6202 193.825 96.1919C181.787 89.9293 169.256 84.5456 158.859 75.4812C158.53 75.2065 158.092 74.9868 157.655 74.822C156.177 74.0529 154.7 73.8332 153.332 74.9868C151.854 76.2503 152.128 77.7885 152.675 79.2718C153.824 82.3482 155.794 84.8203 158.311 86.9078C162.47 90.4237 167.067 93.1155 171.882 95.5876C174.071 96.6863 176.096 97.1807 178.613 96.4666C182.334 95.3679 186.164 95.3679 189.886 96.906C190.98 97.3455 191.801 98.2245 191.308 99.488C190.871 100.642 189.995 101.191 188.682 100.752C181.349 98.2794 174.892 101.246 168.49 104.103C165.808 105.311 164.604 107.728 165.097 111.079C168.818 108.717 172.429 106.63 176.369 105.201C178.558 104.432 180.747 103.828 183.045 104.212C184.14 104.377 184.961 105.091 184.906 106.245C184.851 107.509 184.085 108.168 182.717 108.223C176.424 108.333 171.499 111.574 166.738 115.2C164.55 116.848 163.838 119.155 164.495 122.176ZM95.3272 102.29C95.0536 105.311 95.8197 107.893 98.8294 109.321C101.73 110.695 104.63 112.343 107.092 108.607C107.311 108.223 107.749 107.948 108.187 107.783C114.863 105.146 118.037 99.7627 119.952 93.1704C120.773 90.3138 122.25 87.5121 124.713 85.6443C125.916 84.7653 126.518 83.7215 126.956 82.4031C129.473 74.4924 132.209 66.6366 135.11 58.8358C137.244 53.2324 139.651 47.6839 141.019 41.8058C142.169 36.9166 141.293 34.7741 136.806 32.3569C132.866 30.2144 128.707 28.5664 124.439 27.3578C120.663 26.314 118.967 26.9732 116.723 30.1595C113.987 34.005 112.181 38.2899 110.321 42.52C102.003 61.6375 96.4763 81.4143 95.3272 102.29ZM105.56 140.195C108.351 140.36 110.649 140.305 112.947 140.635C114.917 140.909 115.41 140.14 115.629 138.327C116.067 133.768 116.942 129.263 119.022 125.143C123.29 116.683 125.971 107.673 127.941 98.4442C128.543 95.5876 129.035 92.676 128.762 89.7095C128.707 89.27 128.817 88.7207 128.324 88.5009C127.722 88.2263 127.284 88.6108 126.956 89.0503C126.409 89.7644 125.807 90.4786 125.369 91.2477C123.18 94.9833 121.867 99.0485 120.444 103.114C119.788 104.927 118.748 106.135 117.052 107.124C112.4 109.761 107.366 112.013 105.341 117.617C105.013 118.551 104.192 118.77 103.317 118.606C102.441 118.441 101.62 117.672 101.839 116.903C102.496 114.595 100.854 114.43 99.486 113.881C92.8647 111.299 90.9495 108.388 91.442 101.356C91.9345 94.7636 92.6459 88.2263 93.795 81.7439C93.9592 80.9748 94.6705 79.931 93.3025 79.4366C92.2081 79.052 91.3326 79.4915 90.6212 80.2606C89.5815 81.4692 89.1437 82.9525 88.8154 84.4906C87.6115 89.8743 88.104 95.258 89.1437 100.532C90.6759 108.607 92.81 116.573 92.6459 124.923C92.5364 129.593 92.8647 134.262 93.5214 138.877C93.795 140.58 94.1781 141.129 96.0933 140.854C99.3766 140.415 102.769 140.415 105.56 140.195ZM206.192 151.072C199.243 156.511 191.691 158.818 183.483 158.653C182.389 158.653 182.389 159.313 182.389 160.082C182.389 164.202 182.389 168.322 182.334 172.442C182.334 173.596 182.608 173.98 183.921 173.816C191.91 172.882 198.969 169.805 205.153 164.696C206.138 163.927 207.287 162.993 207.177 161.62C206.959 158.324 206.575 154.973 206.192 151.072ZM106.162 144.26C102.605 144.315 99.0482 144.59 95.5461 144.975C94.1781 145.084 93.6856 145.469 93.9592 147.007C94.6705 151.072 95.2725 155.138 95.765 159.203C95.9839 160.906 96.4216 161.071 97.9538 160.411C103.973 157.939 110.266 156.621 116.723 156.017C117.982 155.907 118.529 155.632 118.201 154.259C117.653 151.841 117.161 149.424 116.778 147.007C116.504 145.359 115.629 144.755 114.042 144.7C111.415 144.645 108.789 144.425 106.162 144.26ZM244.443 150.413C247.179 150.413 247.616 151.732 247.288 153.709C246.96 155.687 246.796 157.665 246.631 159.697C246.577 160.247 246.358 161.126 247.124 161.345C247.507 161.455 248.109 161.016 248.492 160.686C250.626 158.983 252.268 156.731 254.074 154.753C255.77 152.83 257.028 150.413 259.929 149.699C261.133 149.424 260.257 148.6 259.71 148.161C257.521 146.513 255.387 144.755 253.691 142.667C252.706 141.459 252.158 141.898 251.392 142.722C249.258 145.139 247.069 147.557 244.443 150.413ZM97.5161 65.8675C93.1931 67.0761 91.3326 69.6031 91.3873 73.6134C91.442 74.9319 91.825 75.3164 93.1384 75.3714C94.3422 75.4812 95.163 75.646 95.4914 74.1078C96.0386 71.416 96.8047 68.834 97.5161 65.8675ZM105.943 42.5749C102.222 44.2779 100.963 47.1895 99.8143 50.1011C99.486 50.8702 98.6105 52.0787 99.6502 52.4633C100.635 52.7929 102.113 52.7929 102.66 51.035C103.535 48.3981 104.685 45.8161 105.943 42.5749ZM100.252 56.6384C97.5161 57.4075 95.9839 59.0555 95.4914 61.8572C99.3766 61.5826 99.3766 61.5826 100.252 56.6384ZM160.664 126.846C160.445 123.55 159.789 120.254 160.883 116.188C158.202 119.539 158.257 123.22 160.664 126.846ZM281.708 234.245C281.544 233.311 280.942 232.761 280.121 232.597C279.519 232.487 278.698 232.597 278.698 233.421C278.698 234.355 279.409 234.849 280.285 235.014C280.887 235.069 281.544 235.014 281.708 234.245Z" fill="#383838"/>
<path d="M97.516 65.8677C96.7499 68.7792 95.9838 71.4161 95.4366 74.108C95.1083 75.6462 94.2875 75.4814 93.0836 75.3715C91.825 75.2616 91.3872 74.8771 91.3325 73.6136C91.3325 69.6582 93.193 67.0763 97.516 65.8677Z" fill="#E4F4F1"/>
<path d="M105.943 42.575C104.63 45.8161 103.481 48.3981 102.66 51.035C102.113 52.793 100.635 52.793 99.6502 52.4633C98.6104 52.0788 99.486 50.8702 99.8143 50.1011C101.018 47.1895 102.222 44.223 105.943 42.575Z" fill="#E4F4F1"/>
<path d="M100.252 56.6384C99.3764 61.5826 99.3764 61.5826 95.4912 61.8572C95.9837 59.0555 97.4612 57.4075 100.252 56.6384Z" fill="#E4F4F1"/>
<path d="M160.664 126.846C158.202 123.275 158.147 119.54 160.883 116.188C159.789 120.199 160.5 123.495 160.664 126.846Z" fill="#E4F4F1"/>
<path d="M281.708 234.244C281.544 235.014 280.887 235.123 280.285 235.014C279.41 234.849 278.753 234.354 278.698 233.42C278.698 232.596 279.464 232.487 280.121 232.596C280.997 232.706 281.544 233.311 281.708 234.244Z" fill="#E4F4F1"/>
<path d="M288.056 107.344C286.086 107.234 284.28 107.069 282.748 105.97C281.653 105.256 280.997 104.322 281.763 103.004C282.474 101.905 283.459 101.685 284.553 102.4C286.031 103.333 287.618 103.388 289.259 103.114C290.627 102.894 291.941 102.949 292.269 104.542C292.597 106.3 291.229 106.849 289.807 107.124C289.205 107.289 288.548 107.344 288.056 107.344Z" fill="#383838"/>
<path d="M317.167 108.717C318.644 108.717 320.122 108.937 320.177 110.75C320.231 112.563 318.809 112.783 317.331 112.837C316.346 112.837 315.361 113.112 314.376 113.222C313.282 113.387 312.352 113.112 312.023 111.904C311.695 110.64 312.297 109.706 313.446 109.377C314.65 108.992 315.908 108.937 317.167 108.717Z" fill="#383838"/>
<path d="M294.677 90.7532C294.731 92.676 292.488 95.8073 291.175 95.7524C289.971 95.6974 289.369 94.9283 289.314 93.8296C289.205 92.1816 291.667 88.6657 292.871 88.8305C293.965 88.8854 294.677 89.5446 294.677 90.7532Z" fill="#383838"/>
<path d="M288.548 88.6657C288.603 90.4785 286.195 93.9395 284.991 93.8296C283.897 93.7197 283.131 93.0605 283.021 91.9069C282.857 90.3137 285.21 86.7429 286.414 86.7979C287.673 86.7979 288.329 87.567 288.548 88.6657Z" fill="#383838"/>
<path d="M98.6652 103.718C100.197 88.7205 103.973 74.2725 108.789 60.0442C111.634 51.6391 113.713 42.9593 118.146 35.1585C119.186 33.3456 120.28 31.5327 121.703 29.9946C122.633 29.0057 123.837 28.3465 125.041 29.5551C126.08 30.5988 125.643 31.6426 124.767 32.6864C121.539 36.422 119.514 40.8168 117.927 45.3765C112.729 60.5936 107.366 75.7558 104.52 91.6871C103.754 95.8072 103.262 99.9823 102.66 104.157C102.441 105.641 102.496 107.344 100.362 107.124C98.2821 106.904 98.5557 105.201 98.6652 103.718Z" fill="#383838"/>
</g>
<path opacity="0.5" d="M39.2412 301.64C39.2412 300.96 38.9922 300.421 38.4941 300.022C38.002 299.618 37.3076 299.416 36.4111 299.416C35.6611 299.416 35.0312 299.624 34.5215 300.04C34.0176 300.45 33.7656 300.96 33.7656 301.569H32.0781C32.0781 300.89 32.2627 300.28 32.6318 299.741C33.0068 299.202 33.5283 298.783 34.1963 298.484C34.8643 298.18 35.6025 298.027 36.4111 298.027C37.8408 298.027 38.9512 298.35 39.7422 298.994C40.5332 299.633 40.9287 300.523 40.9287 301.666C40.9287 302.258 40.7471 302.797 40.3838 303.283C40.0205 303.77 39.5137 304.153 38.8633 304.435C40.3691 304.938 41.1221 305.938 41.1221 307.432C41.1221 308.58 40.6943 309.491 39.8389 310.165C38.9834 310.839 37.8408 311.176 36.4111 311.176C35.5615 311.176 34.7881 311.026 34.0908 310.728C33.3994 310.423 32.8604 309.992 32.4736 309.436C32.0869 308.879 31.8936 308.217 31.8936 307.449H33.5811C33.5811 308.123 33.8477 308.686 34.3809 309.137C34.9141 309.582 35.5908 309.805 36.4111 309.805C37.3311 309.805 38.0635 309.591 38.6084 309.163C39.1592 308.735 39.4346 308.17 39.4346 307.467C39.4346 305.967 38.5059 305.202 36.6484 305.173H35.0664V303.784H36.6396C37.4951 303.767 38.1426 303.573 38.582 303.204C39.0215 302.835 39.2412 302.313 39.2412 301.64ZM43.0293 309.673L43.5918 308.979C44.2246 308.158 44.585 306.928 44.6729 305.287L44.8223 301.49H50.9482V309.673H52.1699V313.795H50.5439V311H43.9082V313.795H42.2822L42.291 309.673H43.0293ZM44.9541 309.673H49.3223V302.993H46.3955L46.2988 305.261C46.1992 307.153 45.751 308.624 44.9541 309.673ZM57.918 311.176C56.6289 311.176 55.5801 310.754 54.7715 309.91C53.9629 309.061 53.5586 307.927 53.5586 306.509V306.21C53.5586 305.267 53.7373 304.426 54.0947 303.688C54.458 302.943 54.9619 302.363 55.6064 301.947C56.2568 301.525 56.96 301.314 57.7158 301.314C58.9521 301.314 59.9131 301.722 60.5986 302.536C61.2842 303.351 61.627 304.517 61.627 306.034V306.711H55.1846C55.208 307.648 55.4805 308.407 56.002 308.987C56.5293 309.562 57.1973 309.849 58.0059 309.849C58.5801 309.849 59.0664 309.731 59.4648 309.497C59.8633 309.263 60.2119 308.952 60.5107 308.565L61.5039 309.339C60.707 310.563 59.5117 311.176 57.918 311.176ZM57.7158 302.65C57.0596 302.65 56.5088 302.891 56.0635 303.371C55.6182 303.846 55.3428 304.514 55.2373 305.375H60.001V305.252C59.9541 304.426 59.7314 303.787 59.333 303.336C58.9346 302.879 58.3955 302.65 57.7158 302.65ZM67.3311 309.849C67.9111 309.849 68.418 309.673 68.8516 309.321C69.2852 308.97 69.5254 308.53 69.5723 308.003H71.1104C71.0811 308.548 70.8936 309.066 70.5479 309.559C70.2021 310.051 69.7393 310.443 69.1592 310.736C68.585 311.029 67.9756 311.176 67.3311 311.176C66.0361 311.176 65.0049 310.745 64.2373 309.884C63.4756 309.017 63.0947 307.833 63.0947 306.333V306.061C63.0947 305.135 63.2646 304.312 63.6045 303.591C63.9443 302.87 64.4307 302.311 65.0635 301.912C65.7021 301.514 66.4551 301.314 67.3223 301.314C68.3887 301.314 69.2734 301.634 69.9766 302.272C70.6855 302.911 71.0635 303.74 71.1104 304.76H69.5723C69.5254 304.145 69.291 303.641 68.8691 303.248C68.4531 302.85 67.9375 302.65 67.3223 302.65C66.4961 302.65 65.8545 302.949 65.3975 303.547C64.9463 304.139 64.7207 304.997 64.7207 306.122V306.43C64.7207 307.525 64.9463 308.369 65.3975 308.961C65.8486 309.553 66.4932 309.849 67.3311 309.849ZM74.7139 304.769H77.1836C78.2617 304.78 79.1143 305.062 79.7412 305.612C80.3682 306.163 80.6816 306.91 80.6816 307.854C80.6816 308.803 80.3594 309.564 79.7148 310.139C79.0703 310.713 78.2031 311 77.1133 311H73.0879V301.49H74.7139V304.769ZM74.7139 306.096V309.673H77.1309C77.7402 309.673 78.2119 309.518 78.5459 309.207C78.8799 308.891 79.0469 308.46 79.0469 307.915C79.0469 307.388 78.8828 306.957 78.5547 306.623C78.2324 306.283 77.7783 306.107 77.1924 306.096H74.7139ZM91.3516 302.035C92.5469 302.035 93.502 302.437 94.2168 303.239C94.9375 304.036 95.2979 305.088 95.2979 306.395V306.544C95.2979 307.44 95.125 308.243 94.7793 308.952C94.4336 309.655 93.9355 310.203 93.2852 310.596C92.6406 310.982 91.8965 311.176 91.0527 311.176C89.7754 311.176 88.7471 310.751 87.9678 309.901C87.1885 309.046 86.7988 307.9 86.7988 306.465V305.674C86.7988 303.676 87.168 302.088 87.9062 300.91C88.6504 299.732 89.7461 299.015 91.1934 298.757C92.0137 298.61 92.5674 298.432 92.8545 298.221C93.1416 298.01 93.2852 297.72 93.2852 297.351H94.6211C94.6211 298.083 94.4541 298.654 94.1201 299.064C93.792 299.475 93.2646 299.765 92.5381 299.935L91.3252 300.207C90.3584 300.436 89.6318 300.822 89.1455 301.367C88.665 301.906 88.3516 302.627 88.2051 303.529C89.0664 302.533 90.1152 302.035 91.3516 302.035ZM91.0352 303.371C90.2383 303.371 89.6055 303.641 89.1367 304.18C88.668 304.713 88.4336 305.454 88.4336 306.403V306.544C88.4336 307.563 88.668 308.372 89.1367 308.97C89.6113 309.562 90.25 309.857 91.0527 309.857C91.8613 309.857 92.5 309.559 92.9688 308.961C93.4375 308.363 93.6719 307.49 93.6719 306.342C93.6719 305.445 93.4346 304.728 92.96 304.188C92.4912 303.644 91.8496 303.371 91.0352 303.371ZM100.237 308.618L102.452 301.49H104.192L100.369 312.468C99.7773 314.05 98.8369 314.841 97.5479 314.841L97.2402 314.814L96.6338 314.7V313.382L97.0732 313.417C97.624 313.417 98.0518 313.306 98.3564 313.083C98.667 312.86 98.9219 312.453 99.1211 311.861L99.4814 310.895L96.0889 301.49H97.8643L100.237 308.618ZM105.08 309.673L105.643 308.979C106.275 308.158 106.636 306.928 106.724 305.287L106.873 301.49H112.999V309.673H114.221V313.795H112.595V311H105.959V313.795H104.333L104.342 309.673H105.08ZM107.005 309.673H111.373V302.993H108.446L108.35 305.261C108.25 307.153 107.802 308.624 107.005 309.673ZM119.134 308.618L121.349 301.49H123.089L119.266 312.468C118.674 314.05 117.733 314.841 116.444 314.841L116.137 314.814L115.53 314.7V313.382L115.97 313.417C116.521 313.417 116.948 313.306 117.253 313.083C117.563 312.86 117.818 312.453 118.018 311.861L118.378 310.895L114.985 301.49H116.761L119.134 308.618ZM131.614 302.809H128.424V311H126.798V302.809H123.669V301.49H131.614V302.809ZM140.852 304.962L142.961 301.49H144.859L141.748 306.192L144.956 311H143.075L140.878 307.44L138.681 311H136.791L139.999 306.192L136.888 301.49H138.769L140.852 304.962ZM154.624 306.351C154.624 307.798 154.293 308.964 153.631 309.849C152.969 310.733 152.072 311.176 150.941 311.176C149.787 311.176 148.879 310.81 148.217 310.077V314.656H146.591V301.49H148.076L148.155 302.545C148.817 301.725 149.737 301.314 150.915 301.314C152.058 301.314 152.96 301.745 153.622 302.606C154.29 303.468 154.624 304.666 154.624 306.201V306.351ZM152.998 306.166C152.998 305.094 152.77 304.247 152.312 303.626C151.855 303.005 151.229 302.694 150.432 302.694C149.447 302.694 148.709 303.131 148.217 304.004V308.548C148.703 309.415 149.447 309.849 150.449 309.849C151.229 309.849 151.847 309.541 152.304 308.926C152.767 308.305 152.998 307.385 152.998 306.166ZM162.569 311C162.476 310.812 162.399 310.479 162.341 309.998C161.585 310.783 160.683 311.176 159.634 311.176C158.696 311.176 157.926 310.912 157.322 310.385C156.725 309.852 156.426 309.178 156.426 308.363C156.426 307.373 156.801 306.605 157.551 306.061C158.307 305.51 159.367 305.234 160.732 305.234H162.314V304.487C162.314 303.919 162.145 303.468 161.805 303.134C161.465 302.794 160.964 302.624 160.302 302.624C159.722 302.624 159.235 302.771 158.843 303.063C158.45 303.356 158.254 303.711 158.254 304.127H156.619C156.619 303.652 156.786 303.195 157.12 302.756C157.46 302.311 157.917 301.959 158.491 301.701C159.071 301.443 159.707 301.314 160.398 301.314C161.494 301.314 162.353 301.59 162.974 302.141C163.595 302.686 163.917 303.438 163.94 304.399V308.776C163.94 309.649 164.052 310.344 164.274 310.859V311H162.569ZM159.871 309.761C160.381 309.761 160.864 309.629 161.321 309.365C161.778 309.102 162.109 308.759 162.314 308.337V306.386H161.04C159.048 306.386 158.052 306.969 158.052 308.135C158.052 308.645 158.222 309.043 158.562 309.33C158.901 309.617 159.338 309.761 159.871 309.761ZM174.259 311H172.633V306.939H168.265V311H166.63V301.49H168.265V305.612H172.633V301.49H174.259V311ZM183.03 301.49H184.656V311H183.03V304.065L178.645 311H177.019V301.49H178.645V308.434L183.03 301.49ZM194.333 302.809H191.143V311H189.517V302.809H186.388V301.49H194.333V302.809ZM197.69 304.769H200.16C201.238 304.78 202.091 305.062 202.718 305.612C203.345 306.163 203.658 306.91 203.658 307.854C203.658 308.803 203.336 309.564 202.691 310.139C202.047 310.713 201.18 311 200.09 311H196.064V301.49H197.69V304.769ZM197.69 306.096V309.673H200.107C200.717 309.673 201.188 309.518 201.522 309.207C201.856 308.891 202.023 308.46 202.023 307.915C202.023 307.388 201.859 306.957 201.531 306.623C201.209 306.283 200.755 306.107 200.169 306.096H197.69ZM209.503 309.849C210.083 309.849 210.59 309.673 211.023 309.321C211.457 308.97 211.697 308.53 211.744 308.003H213.282C213.253 308.548 213.065 309.066 212.72 309.559C212.374 310.051 211.911 310.443 211.331 310.736C210.757 311.029 210.147 311.176 209.503 311.176C208.208 311.176 207.177 310.745 206.409 309.884C205.647 309.017 205.267 307.833 205.267 306.333V306.061C205.267 305.135 205.437 304.312 205.776 303.591C206.116 302.87 206.603 302.311 207.235 301.912C207.874 301.514 208.627 301.314 209.494 301.314C210.561 301.314 211.445 301.634 212.148 302.272C212.857 302.911 213.235 303.74 213.282 304.76H211.744C211.697 304.145 211.463 303.641 211.041 303.248C210.625 302.85 210.109 302.65 209.494 302.65C208.668 302.65 208.026 302.949 207.569 303.547C207.118 304.139 206.893 304.997 206.893 306.122V306.43C206.893 307.525 207.118 308.369 207.569 308.961C208.021 309.553 208.665 309.849 209.503 309.849ZM222.379 301.49V311H220.744V307.3H218.292L216.051 311H214.293L216.684 307.054C216.074 306.831 215.605 306.488 215.277 306.025C214.955 305.557 214.794 305.012 214.794 304.391C214.794 303.523 215.119 302.826 215.77 302.299C216.42 301.766 217.29 301.496 218.38 301.49H222.379ZM216.429 304.408C216.429 304.871 216.587 305.246 216.903 305.533C217.22 305.814 217.639 305.958 218.16 305.964H220.744V302.809H218.406C217.803 302.809 217.322 302.958 216.965 303.257C216.607 303.55 216.429 303.934 216.429 304.408ZM229.023 306.157C229.023 305.226 229.205 304.388 229.568 303.644C229.938 302.899 230.447 302.325 231.098 301.921C231.754 301.517 232.501 301.314 233.339 301.314C234.634 301.314 235.68 301.763 236.477 302.659C237.279 303.556 237.681 304.748 237.681 306.236V306.351C237.681 307.276 237.502 308.108 237.145 308.847C236.793 309.579 236.286 310.15 235.624 310.561C234.968 310.971 234.212 311.176 233.356 311.176C232.067 311.176 231.021 310.728 230.219 309.831C229.422 308.935 229.023 307.748 229.023 306.271V306.157ZM230.658 306.351C230.658 307.405 230.901 308.252 231.388 308.891C231.88 309.529 232.536 309.849 233.356 309.849C234.183 309.849 234.839 309.526 235.325 308.882C235.812 308.231 236.055 307.323 236.055 306.157C236.055 305.114 235.806 304.271 235.308 303.626C234.815 302.976 234.159 302.65 233.339 302.65C232.536 302.65 231.889 302.97 231.396 303.608C230.904 304.247 230.658 305.161 230.658 306.351ZM246.593 302.809H243.402V311H241.776V302.809H238.647V301.49H246.593V302.809ZM253.404 304.092C253.404 303.646 253.234 303.295 252.895 303.037C252.555 302.773 252.089 302.642 251.497 302.642C250.923 302.642 250.442 302.791 250.056 303.09C249.675 303.389 249.484 303.74 249.484 304.145H247.867C247.867 303.318 248.213 302.642 248.904 302.114C249.596 301.587 250.46 301.323 251.497 301.323C252.61 301.323 253.478 301.563 254.099 302.044C254.72 302.519 255.03 303.198 255.03 304.083C255.03 304.511 254.901 304.903 254.644 305.261C254.386 305.618 254.02 305.902 253.545 306.113C254.652 306.488 255.206 307.227 255.206 308.328C255.206 309.201 254.869 309.893 254.195 310.402C253.521 310.912 252.622 311.167 251.497 311.167C250.401 311.167 249.496 310.9 248.781 310.367C248.072 309.828 247.718 309.102 247.718 308.188H249.335C249.335 308.65 249.54 309.049 249.95 309.383C250.366 309.711 250.882 309.875 251.497 309.875C252.118 309.875 252.619 309.731 253 309.444C253.381 309.157 253.571 308.785 253.571 308.328C253.571 307.795 253.41 307.414 253.088 307.186C252.771 306.951 252.276 306.834 251.603 306.834H249.977V305.463H251.743C252.851 305.434 253.404 304.977 253.404 304.092ZM259.091 304.769H261.561C262.639 304.78 263.491 305.062 264.118 305.612C264.745 306.163 265.059 306.91 265.059 307.854C265.059 308.803 264.736 309.564 264.092 310.139C263.447 310.713 262.58 311 261.49 311H257.465V301.49H259.091V304.769ZM268.451 311H266.816V301.49H268.451V311ZM259.091 306.096V309.673H261.508C262.117 309.673 262.589 309.518 262.923 309.207C263.257 308.891 263.424 308.46 263.424 307.915C263.424 307.388 263.26 306.957 262.932 306.623C262.609 306.283 262.155 306.107 261.569 306.096H259.091ZM271.439 311V301.49H275.148C276.414 301.49 277.384 301.713 278.058 302.158C278.737 302.598 279.077 303.245 279.077 304.101C279.077 304.54 278.945 304.938 278.682 305.296C278.418 305.647 278.028 305.917 277.513 306.104C278.087 306.239 278.547 306.503 278.893 306.896C279.244 307.288 279.42 307.757 279.42 308.302C279.42 309.175 279.098 309.843 278.453 310.306C277.814 310.769 276.909 311 275.737 311H271.439ZM273.065 306.825V309.69H275.755C276.435 309.69 276.941 309.564 277.275 309.312C277.615 309.061 277.785 308.706 277.785 308.249C277.785 307.3 277.088 306.825 275.693 306.825H273.065ZM273.065 305.524H275.166C276.689 305.524 277.451 305.079 277.451 304.188C277.451 303.298 276.73 302.838 275.289 302.809H273.065V305.524ZM283.349 304.769H285.818C286.896 304.78 287.749 305.062 288.376 305.612C289.003 306.163 289.316 306.91 289.316 307.854C289.316 308.803 288.994 309.564 288.35 310.139C287.705 310.713 286.838 311 285.748 311H281.723V301.49H283.349V304.769ZM292.709 311H291.074V301.49H292.709V311ZM283.349 306.096V309.673H285.766C286.375 309.673 286.847 309.518 287.181 309.207C287.515 308.891 287.682 308.46 287.682 307.915C287.682 307.388 287.518 306.957 287.189 306.623C286.867 306.283 286.413 306.107 285.827 306.096H283.349ZM295.495 313.549L294.572 312.916C295.123 312.148 295.41 311.357 295.434 310.543V309.075H297.024V310.35C297.024 310.941 296.878 311.533 296.585 312.125C296.298 312.717 295.935 313.191 295.495 313.549ZM306.508 306.948H305.321V311H303.687V301.49H305.321V305.516H306.385L309.584 301.49H311.553L307.791 306.061L311.869 311H309.804L306.508 306.948ZM312.643 306.157C312.643 305.226 312.824 304.388 313.188 303.644C313.557 302.899 314.066 302.325 314.717 301.921C315.373 301.517 316.12 301.314 316.958 301.314C318.253 301.314 319.299 301.763 320.096 302.659C320.898 303.556 321.3 304.748 321.3 306.236V306.351C321.3 307.276 321.121 308.108 320.764 308.847C320.412 309.579 319.905 310.15 319.243 310.561C318.587 310.971 317.831 311.176 316.976 311.176C315.687 311.176 314.641 310.728 313.838 309.831C313.041 308.935 312.643 307.748 312.643 306.271V306.157ZM314.277 306.351C314.277 307.405 314.521 308.252 315.007 308.891C315.499 309.529 316.155 309.849 316.976 309.849C317.802 309.849 318.458 309.526 318.944 308.882C319.431 308.231 319.674 307.323 319.674 306.157C319.674 305.114 319.425 304.271 318.927 303.626C318.435 302.976 317.778 302.65 316.958 302.65C316.155 302.65 315.508 302.97 315.016 303.608C314.523 304.247 314.277 305.161 314.277 306.351ZM330.212 302.809H327.021V311H325.396V302.809H322.267V301.49H330.212V302.809ZM330.994 306.157C330.994 305.226 331.176 304.388 331.539 303.644C331.908 302.899 332.418 302.325 333.068 301.921C333.725 301.517 334.472 301.314 335.31 301.314C336.604 301.314 337.65 301.763 338.447 302.659C339.25 303.556 339.651 304.748 339.651 306.236V306.351C339.651 307.276 339.473 308.108 339.115 308.847C338.764 309.579 338.257 310.15 337.595 310.561C336.938 310.971 336.183 311.176 335.327 311.176C334.038 311.176 332.992 310.728 332.189 309.831C331.393 308.935 330.994 307.748 330.994 306.271V306.157ZM332.629 306.351C332.629 307.405 332.872 308.252 333.358 308.891C333.851 309.529 334.507 309.849 335.327 309.849C336.153 309.849 336.81 309.526 337.296 308.882C337.782 308.231 338.025 307.323 338.025 306.157C338.025 305.114 337.776 304.271 337.278 303.626C336.786 302.976 336.13 302.65 335.31 302.65C334.507 302.65 333.859 302.97 333.367 303.608C332.875 304.247 332.629 305.161 332.629 306.351ZM349.724 306.351C349.724 307.798 349.393 308.964 348.73 309.849C348.068 310.733 347.172 311.176 346.041 311.176C344.887 311.176 343.979 310.81 343.316 310.077V314.656H341.69V301.49H343.176L343.255 302.545C343.917 301.725 344.837 301.314 346.015 301.314C347.157 301.314 348.06 301.745 348.722 302.606C349.39 303.468 349.724 304.666 349.724 306.201V306.351ZM348.098 306.166C348.098 305.094 347.869 304.247 347.412 303.626C346.955 303.005 346.328 302.694 345.531 302.694C344.547 302.694 343.809 303.131 343.316 304.004V308.548C343.803 309.415 344.547 309.849 345.549 309.849C346.328 309.849 346.946 309.541 347.403 308.926C347.866 308.305 348.098 307.385 348.098 306.166ZM353.573 304.769H356.043C357.121 304.78 357.974 305.062 358.601 305.612C359.228 306.163 359.541 306.91 359.541 307.854C359.541 308.803 359.219 309.564 358.574 310.139C357.93 310.713 357.062 311 355.973 311H351.947V301.49H353.573V304.769ZM362.934 311H361.299V301.49H362.934V311ZM353.573 306.096V309.673H355.99C356.6 309.673 357.071 309.518 357.405 309.207C357.739 308.891 357.906 308.46 357.906 307.915C357.906 307.388 357.742 306.957 357.414 306.623C357.092 306.283 356.638 306.107 356.052 306.096H353.573ZM369.719 311.176C368.43 311.176 367.381 310.754 366.572 309.91C365.764 309.061 365.359 307.927 365.359 306.509V306.21C365.359 305.267 365.538 304.426 365.896 303.688C366.259 302.943 366.763 302.363 367.407 301.947C368.058 301.525 368.761 301.314 369.517 301.314C370.753 301.314 371.714 301.722 372.399 302.536C373.085 303.351 373.428 304.517 373.428 306.034V306.711H366.985C367.009 307.648 367.281 308.407 367.803 308.987C368.33 309.562 368.998 309.849 369.807 309.849C370.381 309.849 370.867 309.731 371.266 309.497C371.664 309.263 372.013 308.952 372.312 308.565L373.305 309.339C372.508 310.563 371.312 311.176 369.719 311.176ZM369.517 302.65C368.86 302.65 368.31 302.891 367.864 303.371C367.419 303.846 367.144 304.514 367.038 305.375H371.802V305.252C371.755 304.426 371.532 303.787 371.134 303.336C370.735 302.879 370.196 302.65 369.517 302.65ZM379.932 311V301.49H383.641C384.906 301.49 385.876 301.713 386.55 302.158C387.229 302.598 387.569 303.245 387.569 304.101C387.569 304.54 387.438 304.938 387.174 305.296C386.91 305.647 386.521 305.917 386.005 306.104C386.579 306.239 387.039 306.503 387.385 306.896C387.736 307.288 387.912 307.757 387.912 308.302C387.912 309.175 387.59 309.843 386.945 310.306C386.307 310.769 385.401 311 384.229 311H379.932ZM381.558 306.825V309.69H384.247C384.927 309.69 385.434 309.564 385.768 309.312C386.107 309.061 386.277 308.706 386.277 308.249C386.277 307.3 385.58 306.825 384.186 306.825H381.558ZM381.558 305.524H383.658C385.182 305.524 385.943 305.079 385.943 304.188C385.943 303.298 385.223 302.838 383.781 302.809H381.558V305.524ZM391.841 304.769H394.311C395.389 304.78 396.241 305.062 396.868 305.612C397.495 306.163 397.809 306.91 397.809 307.854C397.809 308.803 397.486 309.564 396.842 310.139C396.197 310.713 395.33 311 394.24 311H390.215V301.49H391.841V304.769ZM401.201 311H399.566V301.49H401.201V311ZM391.841 306.096V309.673H394.258C394.867 309.673 395.339 309.518 395.673 309.207C396.007 308.891 396.174 308.46 396.174 307.915C396.174 307.388 396.01 306.957 395.682 306.623C395.359 306.283 394.905 306.107 394.319 306.096H391.841ZM121.753 336.673L122.315 335.979C122.948 335.158 123.309 333.928 123.396 332.287L123.546 328.49H129.672V336.673H130.894V340.795H129.268V338H122.632V340.795H121.006L121.015 336.673H121.753ZM123.678 336.673H128.046V329.993H125.119L125.022 332.261C124.923 334.153 124.475 335.624 123.678 336.673ZM132.265 333.157C132.265 332.226 132.446 331.388 132.81 330.644C133.179 329.899 133.688 329.325 134.339 328.921C134.995 328.517 135.742 328.314 136.58 328.314C137.875 328.314 138.921 328.763 139.718 329.659C140.521 330.556 140.922 331.748 140.922 333.236V333.351C140.922 334.276 140.743 335.108 140.386 335.847C140.034 336.579 139.527 337.15 138.865 337.561C138.209 337.971 137.453 338.176 136.598 338.176C135.309 338.176 134.263 337.728 133.46 336.831C132.663 335.935 132.265 334.748 132.265 333.271V333.157ZM133.899 333.351C133.899 334.405 134.143 335.252 134.629 335.891C135.121 336.529 135.777 336.849 136.598 336.849C137.424 336.849 138.08 336.526 138.566 335.882C139.053 335.231 139.296 334.323 139.296 333.157C139.296 332.114 139.047 331.271 138.549 330.626C138.057 329.976 137.4 329.65 136.58 329.65C135.777 329.65 135.13 329.97 134.638 330.608C134.146 331.247 133.899 332.161 133.899 333.351ZM147.136 329.035C148.331 329.035 149.286 329.437 150.001 330.239C150.722 331.036 151.082 332.088 151.082 333.395V333.544C151.082 334.44 150.909 335.243 150.563 335.952C150.218 336.655 149.72 337.203 149.069 337.596C148.425 337.982 147.681 338.176 146.837 338.176C145.56 338.176 144.531 337.751 143.752 336.901C142.973 336.046 142.583 334.9 142.583 333.465V332.674C142.583 330.676 142.952 329.088 143.69 327.91C144.435 326.732 145.53 326.015 146.978 325.757C147.798 325.61 148.352 325.432 148.639 325.221C148.926 325.01 149.069 324.72 149.069 324.351H150.405C150.405 325.083 150.238 325.654 149.904 326.064C149.576 326.475 149.049 326.765 148.322 326.935L147.109 327.207C146.143 327.436 145.416 327.822 144.93 328.367C144.449 328.906 144.136 329.627 143.989 330.529C144.851 329.533 145.899 329.035 147.136 329.035ZM146.819 330.371C146.022 330.371 145.39 330.641 144.921 331.18C144.452 331.713 144.218 332.454 144.218 333.403V333.544C144.218 334.563 144.452 335.372 144.921 335.97C145.396 336.562 146.034 336.857 146.837 336.857C147.646 336.857 148.284 336.559 148.753 335.961C149.222 335.363 149.456 334.49 149.456 333.342C149.456 332.445 149.219 331.728 148.744 331.188C148.275 330.644 147.634 330.371 146.819 330.371ZM158.781 338C158.688 337.812 158.611 337.479 158.553 336.998C157.797 337.783 156.895 338.176 155.846 338.176C154.908 338.176 154.138 337.912 153.534 337.385C152.937 336.852 152.638 336.178 152.638 335.363C152.638 334.373 153.013 333.605 153.763 333.061C154.519 332.51 155.579 332.234 156.944 332.234H158.526V331.487C158.526 330.919 158.356 330.468 158.017 330.134C157.677 329.794 157.176 329.624 156.514 329.624C155.934 329.624 155.447 329.771 155.055 330.063C154.662 330.356 154.466 330.711 154.466 331.127H152.831C152.831 330.652 152.998 330.195 153.332 329.756C153.672 329.311 154.129 328.959 154.703 328.701C155.283 328.443 155.919 328.314 156.61 328.314C157.706 328.314 158.564 328.59 159.186 329.141C159.807 329.686 160.129 330.438 160.152 331.399V335.776C160.152 336.649 160.264 337.344 160.486 337.859V338H158.781ZM156.083 336.761C156.593 336.761 157.076 336.629 157.533 336.365C157.99 336.102 158.321 335.759 158.526 335.337V333.386H157.252C155.26 333.386 154.264 333.969 154.264 335.135C154.264 335.645 154.434 336.043 154.773 336.33C155.113 336.617 155.55 336.761 156.083 336.761ZM162.851 338V328.49H166.56C167.825 328.49 168.795 328.713 169.469 329.158C170.148 329.598 170.488 330.245 170.488 331.101C170.488 331.54 170.356 331.938 170.093 332.296C169.829 332.647 169.439 332.917 168.924 333.104C169.498 333.239 169.958 333.503 170.304 333.896C170.655 334.288 170.831 334.757 170.831 335.302C170.831 336.175 170.509 336.843 169.864 337.306C169.226 337.769 168.32 338 167.148 338H162.851ZM164.477 333.825V336.69H167.166C167.846 336.69 168.353 336.564 168.687 336.312C169.026 336.061 169.196 335.706 169.196 335.249C169.196 334.3 168.499 333.825 167.104 333.825H164.477ZM164.477 332.524H166.577C168.101 332.524 168.862 332.079 168.862 331.188C168.862 330.298 168.142 329.838 166.7 329.809H164.477V332.524ZM179.137 328.49H180.763V338H179.137V331.065L174.751 338H173.125V328.49H174.751V335.434L179.137 328.49ZM190.439 329.809H187.249V338H185.623V329.809H182.494V328.49H190.439V329.809ZM195.265 338.176C193.976 338.176 192.927 337.754 192.118 336.91C191.31 336.061 190.905 334.927 190.905 333.509V333.21C190.905 332.267 191.084 331.426 191.441 330.688C191.805 329.943 192.309 329.363 192.953 328.947C193.604 328.525 194.307 328.314 195.062 328.314C196.299 328.314 197.26 328.722 197.945 329.536C198.631 330.351 198.974 331.517 198.974 333.034V333.711H192.531C192.555 334.648 192.827 335.407 193.349 335.987C193.876 336.562 194.544 336.849 195.353 336.849C195.927 336.849 196.413 336.731 196.812 336.497C197.21 336.263 197.559 335.952 197.857 335.565L198.851 336.339C198.054 337.563 196.858 338.176 195.265 338.176ZM195.062 329.65C194.406 329.65 193.855 329.891 193.41 330.371C192.965 330.846 192.689 331.514 192.584 332.375H197.348V332.252C197.301 331.426 197.078 330.787 196.68 330.336C196.281 329.879 195.742 329.65 195.062 329.65ZM205.478 338V328.49H209.187C210.452 328.49 211.422 328.713 212.096 329.158C212.775 329.598 213.115 330.245 213.115 331.101C213.115 331.54 212.983 331.938 212.72 332.296C212.456 332.647 212.066 332.917 211.551 333.104C212.125 333.239 212.585 333.503 212.931 333.896C213.282 334.288 213.458 334.757 213.458 335.302C213.458 336.175 213.136 336.843 212.491 337.306C211.853 337.769 210.947 338 209.775 338H205.478ZM207.104 333.825V336.69H209.793C210.473 336.69 210.979 336.564 211.313 336.312C211.653 336.061 211.823 335.706 211.823 335.249C211.823 334.3 211.126 333.825 209.731 333.825H207.104ZM207.104 332.524H209.204C210.728 332.524 211.489 332.079 211.489 331.188C211.489 330.298 210.769 329.838 209.327 329.809H207.104V332.524ZM226.229 328.49H227.854V338H226.229V331.065L221.843 338H220.217V328.49H221.843V335.434L226.229 328.49ZM235.694 331.092C235.694 330.646 235.524 330.295 235.185 330.037C234.845 329.773 234.379 329.642 233.787 329.642C233.213 329.642 232.732 329.791 232.346 330.09C231.965 330.389 231.774 330.74 231.774 331.145H230.157C230.157 330.318 230.503 329.642 231.194 329.114C231.886 328.587 232.75 328.323 233.787 328.323C234.9 328.323 235.768 328.563 236.389 329.044C237.01 329.519 237.32 330.198 237.32 331.083C237.32 331.511 237.191 331.903 236.934 332.261C236.676 332.618 236.31 332.902 235.835 333.113C236.942 333.488 237.496 334.227 237.496 335.328C237.496 336.201 237.159 336.893 236.485 337.402C235.812 337.912 234.912 338.167 233.787 338.167C232.691 338.167 231.786 337.9 231.071 337.367C230.362 336.828 230.008 336.102 230.008 335.188H231.625C231.625 335.65 231.83 336.049 232.24 336.383C232.656 336.711 233.172 336.875 233.787 336.875C234.408 336.875 234.909 336.731 235.29 336.444C235.671 336.157 235.861 335.785 235.861 335.328C235.861 334.795 235.7 334.414 235.378 334.186C235.062 333.951 234.566 333.834 233.893 333.834H232.267V332.463H234.033C235.141 332.434 235.694 331.977 235.694 331.092ZM243.78 329.035C244.976 329.035 245.931 329.437 246.646 330.239C247.366 331.036 247.727 332.088 247.727 333.395V333.544C247.727 334.44 247.554 335.243 247.208 335.952C246.862 336.655 246.364 337.203 245.714 337.596C245.069 337.982 244.325 338.176 243.481 338.176C242.204 338.176 241.176 337.751 240.396 336.901C239.617 336.046 239.228 334.9 239.228 333.465V332.674C239.228 330.676 239.597 329.088 240.335 327.91C241.079 326.732 242.175 326.015 243.622 325.757C244.442 325.61 244.996 325.432 245.283 325.221C245.57 325.01 245.714 324.72 245.714 324.351H247.05C247.05 325.083 246.883 325.654 246.549 326.064C246.221 326.475 245.693 326.765 244.967 326.935L243.754 327.207C242.787 327.436 242.061 327.822 241.574 328.367C241.094 328.906 240.78 329.627 240.634 330.529C241.495 329.533 242.544 329.035 243.78 329.035ZM243.464 330.371C242.667 330.371 242.034 330.641 241.565 331.18C241.097 331.713 240.862 332.454 240.862 333.403V333.544C240.862 334.563 241.097 335.372 241.565 335.97C242.04 336.562 242.679 336.857 243.481 336.857C244.29 336.857 244.929 336.559 245.397 335.961C245.866 335.363 246.101 334.49 246.101 333.342C246.101 332.445 245.863 331.728 245.389 331.188C244.92 330.644 244.278 330.371 243.464 330.371ZM257.43 333.351C257.43 334.798 257.099 335.964 256.437 336.849C255.774 337.733 254.878 338.176 253.747 338.176C252.593 338.176 251.685 337.81 251.022 337.077V341.656H249.396V328.49H250.882L250.961 329.545C251.623 328.725 252.543 328.314 253.721 328.314C254.863 328.314 255.766 328.745 256.428 329.606C257.096 330.468 257.43 331.666 257.43 333.201V333.351ZM255.804 333.166C255.804 332.094 255.575 331.247 255.118 330.626C254.661 330.005 254.034 329.694 253.237 329.694C252.253 329.694 251.515 330.131 251.022 331.004V335.548C251.509 336.415 252.253 336.849 253.255 336.849C254.034 336.849 254.652 336.541 255.109 335.926C255.572 335.305 255.804 334.385 255.804 333.166ZM265.375 338C265.281 337.812 265.205 337.479 265.146 336.998C264.391 337.783 263.488 338.176 262.439 338.176C261.502 338.176 260.731 337.912 260.128 337.385C259.53 336.852 259.231 336.178 259.231 335.363C259.231 334.373 259.606 333.605 260.356 333.061C261.112 332.51 262.173 332.234 263.538 332.234H265.12V331.487C265.12 330.919 264.95 330.468 264.61 330.134C264.271 329.794 263.77 329.624 263.107 329.624C262.527 329.624 262.041 329.771 261.648 330.063C261.256 330.356 261.06 330.711 261.06 331.127H259.425C259.425 330.652 259.592 330.195 259.926 329.756C260.266 329.311 260.723 328.959 261.297 328.701C261.877 328.443 262.513 328.314 263.204 328.314C264.3 328.314 265.158 328.59 265.779 329.141C266.4 329.686 266.723 330.438 266.746 331.399V335.776C266.746 336.649 266.857 337.344 267.08 337.859V338H265.375ZM262.677 336.761C263.187 336.761 263.67 336.629 264.127 336.365C264.584 336.102 264.915 335.759 265.12 335.337V333.386H263.846C261.854 333.386 260.857 333.969 260.857 335.135C260.857 335.645 261.027 336.043 261.367 336.33C261.707 336.617 262.144 336.761 262.677 336.761ZM277.064 338H275.438V333.939H271.07V338H269.436V328.49H271.07V332.612H275.438V328.49H277.064V338ZM287.453 338H285.827V333.939H281.459V338H279.824V328.49H281.459V332.612H285.827V328.49H287.453V338ZM289.642 333.157C289.642 332.226 289.823 331.388 290.187 330.644C290.556 329.899 291.065 329.325 291.716 328.921C292.372 328.517 293.119 328.314 293.957 328.314C295.252 328.314 296.298 328.763 297.095 329.659C297.897 330.556 298.299 331.748 298.299 333.236V333.351C298.299 334.276 298.12 335.108 297.763 335.847C297.411 336.579 296.904 337.15 296.242 337.561C295.586 337.971 294.83 338.176 293.975 338.176C292.686 338.176 291.64 337.728 290.837 336.831C290.04 335.935 289.642 334.748 289.642 333.271V333.157ZM291.276 333.351C291.276 334.405 291.52 335.252 292.006 335.891C292.498 336.529 293.154 336.849 293.975 336.849C294.801 336.849 295.457 336.526 295.943 335.882C296.43 335.231 296.673 334.323 296.673 333.157C296.673 332.114 296.424 331.271 295.926 330.626C295.434 329.976 294.777 329.65 293.957 329.65C293.154 329.65 292.507 329.97 292.015 330.608C291.522 331.247 291.276 332.161 291.276 333.351ZM304.284 338.176C302.995 338.176 301.946 337.754 301.138 336.91C300.329 336.061 299.925 334.927 299.925 333.509V333.21C299.925 332.267 300.104 331.426 300.461 330.688C300.824 329.943 301.328 329.363 301.973 328.947C302.623 328.525 303.326 328.314 304.082 328.314C305.318 328.314 306.279 328.722 306.965 329.536C307.65 330.351 307.993 331.517 307.993 333.034V333.711H301.551C301.574 334.648 301.847 335.407 302.368 335.987C302.896 336.562 303.563 336.849 304.372 336.849C304.946 336.849 305.433 336.731 305.831 336.497C306.229 336.263 306.578 335.952 306.877 335.565L307.87 336.339C307.073 337.563 305.878 338.176 304.284 338.176ZM304.082 329.65C303.426 329.65 302.875 329.891 302.43 330.371C301.984 330.846 301.709 331.514 301.604 332.375H306.367V332.252C306.32 331.426 306.098 330.787 305.699 330.336C305.301 329.879 304.762 329.65 304.082 329.65ZM309.918 337.147C309.918 336.866 310 336.632 310.164 336.444C310.334 336.257 310.586 336.163 310.92 336.163C311.254 336.163 311.506 336.257 311.676 336.444C311.852 336.632 311.939 336.866 311.939 337.147C311.939 337.417 311.852 337.643 311.676 337.824C311.506 338.006 311.254 338.097 310.92 338.097C310.586 338.097 310.334 338.006 310.164 337.824C310 337.643 309.918 337.417 309.918 337.147ZM25.249 361.66H19.8877L18.6836 365H16.9434L21.8301 352.203H23.3066L28.2021 365H26.4707L25.249 361.66ZM20.3975 360.271H24.748L22.5684 354.286L20.3975 360.271ZM41.2012 356.809H38.0107V365H36.3848V356.809H33.2559V355.49H41.2012V356.809ZM48.5137 365C48.4199 364.812 48.3438 364.479 48.2852 363.998C47.5293 364.783 46.627 365.176 45.5781 365.176C44.6406 365.176 43.8701 364.912 43.2666 364.385C42.6689 363.852 42.3701 363.178 42.3701 362.363C42.3701 361.373 42.7451 360.605 43.4951 360.061C44.251 359.51 45.3115 359.234 46.6768 359.234H48.2588V358.487C48.2588 357.919 48.0889 357.468 47.749 357.134C47.4092 356.794 46.9082 356.624 46.2461 356.624C45.666 356.624 45.1797 356.771 44.7871 357.063C44.3945 357.356 44.1982 357.711 44.1982 358.127H42.5635C42.5635 357.652 42.7305 357.195 43.0645 356.756C43.4043 356.311 43.8613 355.959 44.4355 355.701C45.0156 355.443 45.6514 355.314 46.3428 355.314C47.4385 355.314 48.2969 355.59 48.918 356.141C49.5391 356.686 49.8613 357.438 49.8848 358.399V362.776C49.8848 363.649 49.9961 364.344 50.2188 364.859V365H48.5137ZM45.8154 363.761C46.3252 363.761 46.8086 363.629 47.2656 363.365C47.7227 363.102 48.0537 362.759 48.2588 362.337V360.386H46.9844C44.9922 360.386 43.9961 360.969 43.9961 362.135C43.9961 362.645 44.166 363.043 44.5059 363.33C44.8457 363.617 45.2822 363.761 45.8154 363.761ZM55.3955 360.948H54.209V365H52.5742V355.49H54.209V359.516H55.2725L58.4717 355.49H60.4404L56.6787 360.061L60.7568 365H58.6914L55.3955 360.948ZM69.7393 360.869H68.5967V365H66.9707V360.869H65.8281L63.165 365H61.1084L64.5098 360.078L61.4336 355.49H63.4023L65.8545 359.428H66.9707V355.49H68.5967V359.428H69.7041L72.1738 355.49H74.1426L71.0576 360.087L74.459 365H72.4023L69.7393 360.869ZM79.7061 365.176C78.417 365.176 77.3682 364.754 76.5596 363.91C75.751 363.061 75.3467 361.927 75.3467 360.509V360.21C75.3467 359.267 75.5254 358.426 75.8828 357.688C76.2461 356.943 76.75 356.363 77.3945 355.947C78.0449 355.525 78.748 355.314 79.5039 355.314C80.7402 355.314 81.7012 355.722 82.3867 356.536C83.0723 357.351 83.415 358.517 83.415 360.034V360.711H76.9727C76.9961 361.648 77.2686 362.407 77.79 362.987C78.3174 363.562 78.9854 363.849 79.7939 363.849C80.3682 363.849 80.8545 363.731 81.2529 363.497C81.6514 363.263 82 362.952 82.2988 362.565L83.292 363.339C82.4951 364.563 81.2998 365.176 79.7061 365.176ZM79.5039 356.65C78.8477 356.65 78.2969 356.891 77.8516 357.371C77.4062 357.846 77.1309 358.514 77.0254 359.375H81.7891V359.252C81.7422 358.426 81.5195 357.787 81.1211 357.336C80.7227 356.879 80.1836 356.65 79.5039 356.65ZM89.3389 360.157C89.3389 359.226 89.5205 358.388 89.8838 357.644C90.2529 356.899 90.7627 356.325 91.4131 355.921C92.0693 355.517 92.8164 355.314 93.6543 355.314C94.9492 355.314 95.9951 355.763 96.792 356.659C97.5947 357.556 97.9961 358.748 97.9961 360.236V360.351C97.9961 361.276 97.8174 362.108 97.46 362.847C97.1084 363.579 96.6016 364.15 95.9395 364.561C95.2832 364.971 94.5273 365.176 93.6719 365.176C92.3828 365.176 91.3369 364.728 90.5342 363.831C89.7373 362.935 89.3389 361.748 89.3389 360.271V360.157ZM90.9736 360.351C90.9736 361.405 91.2168 362.252 91.7031 362.891C92.1953 363.529 92.8516 363.849 93.6719 363.849C94.498 363.849 95.1543 363.526 95.6406 362.882C96.127 362.231 96.3701 361.323 96.3701 360.157C96.3701 359.114 96.1211 358.271 95.623 357.626C95.1309 356.976 94.4746 356.65 93.6543 356.65C92.8516 356.65 92.2041 356.97 91.7119 357.608C91.2197 358.247 90.9736 359.161 90.9736 360.351ZM106.908 356.809H103.718V365H102.092V356.809H98.9629V355.49H106.908V356.809ZM113.72 358.092C113.72 357.646 113.55 357.295 113.21 357.037C112.87 356.773 112.404 356.642 111.812 356.642C111.238 356.642 110.758 356.791 110.371 357.09C109.99 357.389 109.8 357.74 109.8 358.145H108.183C108.183 357.318 108.528 356.642 109.22 356.114C109.911 355.587 110.775 355.323 111.812 355.323C112.926 355.323 113.793 355.563 114.414 356.044C115.035 356.519 115.346 357.198 115.346 358.083C115.346 358.511 115.217 358.903 114.959 359.261C114.701 359.618 114.335 359.902 113.86 360.113C114.968 360.488 115.521 361.227 115.521 362.328C115.521 363.201 115.185 363.893 114.511 364.402C113.837 364.912 112.938 365.167 111.812 365.167C110.717 365.167 109.812 364.9 109.097 364.367C108.388 363.828 108.033 363.102 108.033 362.188H109.65C109.65 362.65 109.855 363.049 110.266 363.383C110.682 363.711 111.197 363.875 111.812 363.875C112.434 363.875 112.935 363.731 113.315 363.444C113.696 363.157 113.887 362.785 113.887 362.328C113.887 361.795 113.726 361.414 113.403 361.186C113.087 360.951 112.592 360.834 111.918 360.834H110.292V359.463H112.059C113.166 359.434 113.72 358.977 113.72 358.092ZM119.406 358.769H121.876C122.954 358.78 123.807 359.062 124.434 359.612C125.061 360.163 125.374 360.91 125.374 361.854C125.374 362.803 125.052 363.564 124.407 364.139C123.763 364.713 122.896 365 121.806 365H117.78V355.49H119.406V358.769ZM128.767 365H127.132V355.49H128.767V365ZM119.406 360.096V363.673H121.823C122.433 363.673 122.904 363.518 123.238 363.207C123.572 362.891 123.739 362.46 123.739 361.915C123.739 361.388 123.575 360.957 123.247 360.623C122.925 360.283 122.471 360.107 121.885 360.096H119.406ZM131.755 365V355.49H135.464C136.729 355.49 137.699 355.713 138.373 356.158C139.053 356.598 139.393 357.245 139.393 358.101C139.393 358.54 139.261 358.938 138.997 359.296C138.733 359.647 138.344 359.917 137.828 360.104C138.402 360.239 138.862 360.503 139.208 360.896C139.56 361.288 139.735 361.757 139.735 362.302C139.735 363.175 139.413 363.843 138.769 364.306C138.13 364.769 137.225 365 136.053 365H131.755ZM133.381 360.825V363.69H136.07C136.75 363.69 137.257 363.564 137.591 363.312C137.931 363.061 138.101 362.706 138.101 362.249C138.101 361.3 137.403 360.825 136.009 360.825H133.381ZM133.381 359.524H135.481C137.005 359.524 137.767 359.079 137.767 358.188C137.767 357.298 137.046 356.838 135.604 356.809H133.381V359.524ZM143.664 358.769H146.134C147.212 358.78 148.064 359.062 148.691 359.612C149.318 360.163 149.632 360.91 149.632 361.854C149.632 362.803 149.31 363.564 148.665 364.139C148.021 364.713 147.153 365 146.063 365H142.038V355.49H143.664V358.769ZM153.024 365H151.39V355.49H153.024V365ZM143.664 360.096V363.673H146.081C146.69 363.673 147.162 363.518 147.496 363.207C147.83 362.891 147.997 362.46 147.997 361.915C147.997 361.388 147.833 360.957 147.505 360.623C147.183 360.283 146.729 360.107 146.143 360.096H143.664ZM155.811 367.549L154.888 366.916C155.438 366.148 155.726 365.357 155.749 364.543V363.075H157.34V364.35C157.34 364.941 157.193 365.533 156.9 366.125C156.613 366.717 156.25 367.191 155.811 367.549ZM166.823 360.948H165.637V365H164.002V355.49H165.637V359.516H166.7L169.899 355.49H171.868L168.106 360.061L172.185 365H170.119L166.823 360.948ZM172.958 360.157C172.958 359.226 173.14 358.388 173.503 357.644C173.872 356.899 174.382 356.325 175.032 355.921C175.688 355.517 176.436 355.314 177.273 355.314C178.568 355.314 179.614 355.763 180.411 356.659C181.214 357.556 181.615 358.748 181.615 360.236V360.351C181.615 361.276 181.437 362.108 181.079 362.847C180.728 363.579 180.221 364.15 179.559 364.561C178.902 364.971 178.146 365.176 177.291 365.176C176.002 365.176 174.956 364.728 174.153 363.831C173.356 362.935 172.958 361.748 172.958 360.271V360.157ZM174.593 360.351C174.593 361.405 174.836 362.252 175.322 362.891C175.814 363.529 176.471 363.849 177.291 363.849C178.117 363.849 178.773 363.526 179.26 362.882C179.746 362.231 179.989 361.323 179.989 360.157C179.989 359.114 179.74 358.271 179.242 357.626C178.75 356.976 178.094 356.65 177.273 356.65C176.471 356.65 175.823 356.97 175.331 357.608C174.839 358.247 174.593 359.161 174.593 360.351ZM190.527 356.809H187.337V365H185.711V356.809H182.582V355.49H190.527V356.809ZM191.31 360.157C191.31 359.226 191.491 358.388 191.854 357.644C192.224 356.899 192.733 356.325 193.384 355.921C194.04 355.517 194.787 355.314 195.625 355.314C196.92 355.314 197.966 355.763 198.763 356.659C199.565 357.556 199.967 358.748 199.967 360.236V360.351C199.967 361.276 199.788 362.108 199.431 362.847C199.079 363.579 198.572 364.15 197.91 364.561C197.254 364.971 196.498 365.176 195.643 365.176C194.354 365.176 193.308 364.728 192.505 363.831C191.708 362.935 191.31 361.748 191.31 360.271V360.157ZM192.944 360.351C192.944 361.405 193.188 362.252 193.674 362.891C194.166 363.529 194.822 363.849 195.643 363.849C196.469 363.849 197.125 363.526 197.611 362.882C198.098 362.231 198.341 361.323 198.341 360.157C198.341 359.114 198.092 358.271 197.594 357.626C197.102 356.976 196.445 356.65 195.625 356.65C194.822 356.65 194.175 356.97 193.683 357.608C193.19 358.247 192.944 359.161 192.944 360.351ZM210.039 360.351C210.039 361.798 209.708 362.964 209.046 363.849C208.384 364.733 207.487 365.176 206.356 365.176C205.202 365.176 204.294 364.81 203.632 364.077V368.656H202.006V355.49H203.491L203.57 356.545C204.232 355.725 205.152 355.314 206.33 355.314C207.473 355.314 208.375 355.745 209.037 356.606C209.705 357.468 210.039 358.666 210.039 360.201V360.351ZM208.413 360.166C208.413 359.094 208.185 358.247 207.728 357.626C207.271 357.005 206.644 356.694 205.847 356.694C204.862 356.694 204.124 357.131 203.632 358.004V362.548C204.118 363.415 204.862 363.849 205.864 363.849C206.644 363.849 207.262 363.541 207.719 362.926C208.182 362.305 208.413 361.385 208.413 360.166ZM213.889 358.769H216.358C217.437 358.78 218.289 359.062 218.916 359.612C219.543 360.163 219.856 360.91 219.856 361.854C219.856 362.803 219.534 363.564 218.89 364.139C218.245 364.713 217.378 365 216.288 365H212.263V355.49H213.889V358.769ZM223.249 365H221.614V355.49H223.249V365ZM213.889 360.096V363.673H216.306C216.915 363.673 217.387 363.518 217.721 363.207C218.055 362.891 218.222 362.46 218.222 361.915C218.222 361.388 218.058 360.957 217.729 360.623C217.407 360.283 216.953 360.107 216.367 360.096H213.889ZM230.034 365.176C228.745 365.176 227.696 364.754 226.888 363.91C226.079 363.061 225.675 361.927 225.675 360.509V360.21C225.675 359.267 225.854 358.426 226.211 357.688C226.574 356.943 227.078 356.363 227.723 355.947C228.373 355.525 229.076 355.314 229.832 355.314C231.068 355.314 232.029 355.722 232.715 356.536C233.4 357.351 233.743 358.517 233.743 360.034V360.711H227.301C227.324 361.648 227.597 362.407 228.118 362.987C228.646 363.562 229.313 363.849 230.122 363.849C230.696 363.849 231.183 363.731 231.581 363.497C231.979 363.263 232.328 362.952 232.627 362.565L233.62 363.339C232.823 364.563 231.628 365.176 230.034 365.176ZM229.832 356.65C229.176 356.65 228.625 356.891 228.18 357.371C227.734 357.846 227.459 358.514 227.354 359.375H232.117V359.252C232.07 358.426 231.848 357.787 231.449 357.336C231.051 356.879 230.512 356.65 229.832 356.65ZM247.876 365H246.25V356.835H241.873V365H240.238V355.49H247.876V365ZM258.52 360.351C258.52 361.798 258.188 362.964 257.526 363.849C256.864 364.733 255.968 365.176 254.837 365.176C253.683 365.176 252.774 364.81 252.112 364.077V368.656H250.486V355.49H251.972L252.051 356.545C252.713 355.725 253.633 355.314 254.811 355.314C255.953 355.314 256.855 355.745 257.518 356.606C258.186 357.468 258.52 358.666 258.52 360.201V360.351ZM256.894 360.166C256.894 359.094 256.665 358.247 256.208 357.626C255.751 357.005 255.124 356.694 254.327 356.694C253.343 356.694 252.604 357.131 252.112 358.004V362.548C252.599 363.415 253.343 363.849 254.345 363.849C255.124 363.849 255.742 363.541 256.199 362.926C256.662 362.305 256.894 361.385 256.894 360.166ZM266.746 355.49H268.372V365H266.746V358.065L262.36 365H260.734V355.49H262.36V362.434L266.746 355.49ZM272.758 355.49V363.673H276.238V355.49H277.864V363.673H281.336V355.49H282.971V365H271.123V355.49H272.758ZM293.333 355.49V365H291.698V356.835H288.464L288.271 360.395C288.165 362.029 287.89 363.198 287.444 363.901C287.005 364.604 286.305 364.971 285.344 365H284.693V363.567L285.159 363.532C285.687 363.474 286.064 363.169 286.293 362.618C286.521 362.067 286.668 361.048 286.732 359.56L286.908 355.49H293.333ZM297.719 359.524H300.004C300.127 358.259 300.575 357.242 301.349 356.475C302.128 355.701 303.109 355.314 304.293 355.314C305.535 355.314 306.552 355.733 307.343 356.571C308.134 357.409 308.562 358.499 308.626 359.841L308.635 360.351C308.635 361.276 308.453 362.111 308.09 362.855C307.727 363.6 307.217 364.174 306.561 364.578C305.904 364.977 305.154 365.176 304.311 365.176C303.086 365.176 302.084 364.777 301.305 363.98C300.525 363.178 300.089 362.138 299.995 360.86H297.719V365H296.093V355.49H297.719V359.524ZM301.604 360.351C301.604 361.405 301.847 362.252 302.333 362.891C302.825 363.529 303.484 363.849 304.311 363.849C305.137 363.849 305.79 363.523 306.271 362.873C306.757 362.223 307 361.317 307 360.157C307 359.12 306.754 358.276 306.262 357.626C305.77 356.976 305.113 356.65 304.293 356.65C303.484 356.65 302.834 356.97 302.342 357.608C301.85 358.247 301.604 359.161 301.604 360.351ZM317.705 356.809H314.515V365H312.889V356.809H309.76V355.49H317.705V356.809ZM323.901 365V355.49H327.61C328.876 355.49 329.846 355.713 330.52 356.158C331.199 356.598 331.539 357.245 331.539 358.101C331.539 358.54 331.407 358.938 331.144 359.296C330.88 359.647 330.49 359.917 329.975 360.104C330.549 360.239 331.009 360.503 331.354 360.896C331.706 361.288 331.882 361.757 331.882 362.302C331.882 363.175 331.56 363.843 330.915 364.306C330.276 364.769 329.371 365 328.199 365H323.901ZM325.527 360.825V363.69H328.217C328.896 363.69 329.403 363.564 329.737 363.312C330.077 363.061 330.247 362.706 330.247 362.249C330.247 361.3 329.55 360.825 328.155 360.825H325.527ZM325.527 359.524H327.628C329.151 359.524 329.913 359.079 329.913 358.188C329.913 357.298 329.192 356.838 327.751 356.809H325.527V359.524ZM339.906 365C339.812 364.812 339.736 364.479 339.678 363.998C338.922 364.783 338.02 365.176 336.971 365.176C336.033 365.176 335.263 364.912 334.659 364.385C334.062 363.852 333.763 363.178 333.763 362.363C333.763 361.373 334.138 360.605 334.888 360.061C335.644 359.51 336.704 359.234 338.069 359.234H339.651V358.487C339.651 357.919 339.481 357.468 339.142 357.134C338.802 356.794 338.301 356.624 337.639 356.624C337.059 356.624 336.572 356.771 336.18 357.063C335.787 357.356 335.591 357.711 335.591 358.127H333.956C333.956 357.652 334.123 357.195 334.457 356.756C334.797 356.311 335.254 355.959 335.828 355.701C336.408 355.443 337.044 355.314 337.735 355.314C338.831 355.314 339.689 355.59 340.311 356.141C340.932 356.686 341.254 357.438 341.277 358.399V362.776C341.277 363.649 341.389 364.344 341.611 364.859V365H339.906ZM337.208 363.761C337.718 363.761 338.201 363.629 338.658 363.365C339.115 363.102 339.446 362.759 339.651 362.337V360.386H338.377C336.385 360.386 335.389 360.969 335.389 362.135C335.389 362.645 335.559 363.043 335.898 363.33C336.238 363.617 336.675 363.761 337.208 363.761ZM349.302 362.847L352.536 355.49H354.566V365H352.94V358.083L349.864 365H348.739L345.602 357.934V365H343.976V355.49H346.085L349.302 362.847ZM361.571 363.673L362.134 362.979C362.767 362.158 363.127 360.928 363.215 359.287L363.364 355.49H369.49V363.673H370.712V367.795H369.086V365H362.45V367.795H360.824L360.833 363.673H361.571ZM363.496 363.673H367.864V356.993H364.938L364.841 359.261C364.741 361.153 364.293 362.624 363.496 363.673ZM380.547 360.351C380.547 361.798 380.216 362.964 379.554 363.849C378.892 364.733 377.995 365.176 376.864 365.176C375.71 365.176 374.802 364.81 374.14 364.077V368.656H372.514V355.49H373.999L374.078 356.545C374.74 355.725 375.66 355.314 376.838 355.314C377.98 355.314 378.883 355.745 379.545 356.606C380.213 357.468 380.547 358.666 380.547 360.201V360.351ZM378.921 360.166C378.921 359.094 378.692 358.247 378.235 357.626C377.778 357.005 377.151 356.694 376.354 356.694C375.37 356.694 374.632 357.131 374.14 358.004V362.548C374.626 363.415 375.37 363.849 376.372 363.849C377.151 363.849 377.77 363.541 378.227 362.926C378.689 362.305 378.921 361.385 378.921 360.166ZM385.627 362.618L387.842 355.49H389.582L385.759 366.468C385.167 368.05 384.227 368.841 382.938 368.841L382.63 368.814L382.023 368.7V367.382L382.463 367.417C383.014 367.417 383.441 367.306 383.746 367.083C384.057 366.86 384.312 366.453 384.511 365.861L384.871 364.895L381.479 355.49H383.254L385.627 362.618ZM397.185 356.835H392.799V365H391.164V355.49H397.185V356.835ZM404.752 355.49H406.378V365H404.752V358.065L400.366 365H398.74V355.49H400.366V362.434L404.752 355.49ZM412.935 365.176C411.646 365.176 410.597 364.754 409.788 363.91C408.979 363.061 408.575 361.927 408.575 360.509V360.21C408.575 359.267 408.754 358.426 409.111 357.688C409.475 356.943 409.979 356.363 410.623 355.947C411.273 355.525 411.977 355.314 412.732 355.314C413.969 355.314 414.93 355.722 415.615 356.536C416.301 357.351 416.644 358.517 416.644 360.034V360.711H410.201C410.225 361.648 410.497 362.407 411.019 362.987C411.546 363.562 412.214 363.849 413.022 363.849C413.597 363.849 414.083 363.731 414.481 363.497C414.88 363.263 415.229 362.952 415.527 362.565L416.521 363.339C415.724 364.563 414.528 365.176 412.935 365.176ZM412.732 356.65C412.076 356.65 411.525 356.891 411.08 357.371C410.635 357.846 410.359 358.514 410.254 359.375H415.018V359.252C414.971 358.426 414.748 357.787 414.35 357.336C413.951 356.879 413.412 356.65 412.732 356.65ZM164.477 392H162.851V383.835H158.474V392H156.839V382.49H164.477V392ZM166.656 387.157C166.656 386.226 166.838 385.388 167.201 384.644C167.57 383.899 168.08 383.325 168.73 382.921C169.387 382.517 170.134 382.314 170.972 382.314C172.267 382.314 173.312 382.763 174.109 383.659C174.912 384.556 175.313 385.748 175.313 387.236V387.351C175.313 388.276 175.135 389.108 174.777 389.847C174.426 390.579 173.919 391.15 173.257 391.561C172.601 391.971 171.845 392.176 170.989 392.176C169.7 392.176 168.654 391.728 167.852 390.831C167.055 389.935 166.656 388.748 166.656 387.271V387.157ZM168.291 387.351C168.291 388.405 168.534 389.252 169.021 389.891C169.513 390.529 170.169 390.849 170.989 390.849C171.815 390.849 172.472 390.526 172.958 389.882C173.444 389.231 173.688 388.323 173.688 387.157C173.688 386.114 173.438 385.271 172.94 384.626C172.448 383.976 171.792 383.65 170.972 383.65C170.169 383.65 169.521 383.97 169.029 384.608C168.537 385.247 168.291 386.161 168.291 387.351ZM185.008 382.49V392H183.373V383.835H180.139L179.945 387.395C179.84 389.029 179.564 390.198 179.119 390.901C178.68 391.604 177.979 391.971 177.019 392H176.368V390.567L176.834 390.532C177.361 390.474 177.739 390.169 177.968 389.618C178.196 389.067 178.343 388.048 178.407 386.56L178.583 382.49H185.008ZM189.394 385.769H191.863C192.941 385.78 193.794 386.062 194.421 386.612C195.048 387.163 195.361 387.91 195.361 388.854C195.361 389.803 195.039 390.564 194.395 391.139C193.75 391.713 192.883 392 191.793 392H187.768V382.49H189.394V385.769ZM189.394 387.096V390.673H191.811C192.42 390.673 192.892 390.518 193.226 390.207C193.56 389.891 193.727 389.46 193.727 388.915C193.727 388.388 193.562 387.957 193.234 387.623C192.912 387.283 192.458 387.107 191.872 387.096H189.394ZM202.621 385.092C202.621 384.646 202.451 384.295 202.111 384.037C201.771 383.773 201.306 383.642 200.714 383.642C200.14 383.642 199.659 383.791 199.272 384.09C198.892 384.389 198.701 384.74 198.701 385.145H197.084C197.084 384.318 197.43 383.642 198.121 383.114C198.812 382.587 199.677 382.323 200.714 382.323C201.827 382.323 202.694 382.563 203.315 383.044C203.937 383.519 204.247 384.198 204.247 385.083C204.247 385.511 204.118 385.903 203.86 386.261C203.603 386.618 203.236 386.902 202.762 387.113C203.869 387.488 204.423 388.227 204.423 389.328C204.423 390.201 204.086 390.893 203.412 391.402C202.738 391.912 201.839 392.167 200.714 392.167C199.618 392.167 198.713 391.9 197.998 391.367C197.289 390.828 196.935 390.102 196.935 389.188H198.552C198.552 389.65 198.757 390.049 199.167 390.383C199.583 390.711 200.099 390.875 200.714 390.875C201.335 390.875 201.836 390.731 202.217 390.444C202.598 390.157 202.788 389.785 202.788 389.328C202.788 388.795 202.627 388.414 202.305 388.186C201.988 387.951 201.493 387.834 200.819 387.834H199.193V386.463H200.96C202.067 386.434 202.621 385.977 202.621 385.092ZM206.102 387.157C206.102 386.226 206.283 385.388 206.646 384.644C207.016 383.899 207.525 383.325 208.176 382.921C208.832 382.517 209.579 382.314 210.417 382.314C211.712 382.314 212.758 382.763 213.555 383.659C214.357 384.556 214.759 385.748 214.759 387.236V387.351C214.759 388.276 214.58 389.108 214.223 389.847C213.871 390.579 213.364 391.15 212.702 391.561C212.046 391.971 211.29 392.176 210.435 392.176C209.146 392.176 208.1 391.728 207.297 390.831C206.5 389.935 206.102 388.748 206.102 387.271V387.157ZM207.736 387.351C207.736 388.405 207.979 389.252 208.466 389.891C208.958 390.529 209.614 390.849 210.435 390.849C211.261 390.849 211.917 390.526 212.403 389.882C212.89 389.231 213.133 388.323 213.133 387.157C213.133 386.114 212.884 385.271 212.386 384.626C211.894 383.976 211.237 383.65 210.417 383.65C209.614 383.65 208.967 383.97 208.475 384.608C207.982 385.247 207.736 386.161 207.736 387.351ZM216.947 392V382.49H220.656C221.922 382.49 222.892 382.713 223.565 383.158C224.245 383.598 224.585 384.245 224.585 385.101C224.585 385.54 224.453 385.938 224.189 386.296C223.926 386.647 223.536 386.917 223.021 387.104C223.595 387.239 224.055 387.503 224.4 387.896C224.752 388.288 224.928 388.757 224.928 389.302C224.928 390.175 224.605 390.843 223.961 391.306C223.322 391.769 222.417 392 221.245 392H216.947ZM218.573 387.825V390.69H221.263C221.942 390.69 222.449 390.564 222.783 390.312C223.123 390.061 223.293 389.706 223.293 389.249C223.293 388.3 222.596 387.825 221.201 387.825H218.573ZM218.573 386.524H220.674C222.197 386.524 222.959 386.079 222.959 385.188C222.959 384.298 222.238 383.838 220.797 383.809H218.573V386.524ZM232.952 392C232.858 391.812 232.782 391.479 232.724 390.998C231.968 391.783 231.065 392.176 230.017 392.176C229.079 392.176 228.309 391.912 227.705 391.385C227.107 390.852 226.809 390.178 226.809 389.363C226.809 388.373 227.184 387.605 227.934 387.061C228.689 386.51 229.75 386.234 231.115 386.234H232.697V385.487C232.697 384.919 232.527 384.468 232.188 384.134C231.848 383.794 231.347 383.624 230.685 383.624C230.104 383.624 229.618 383.771 229.226 384.063C228.833 384.356 228.637 384.711 228.637 385.127H227.002C227.002 384.652 227.169 384.195 227.503 383.756C227.843 383.311 228.3 382.959 228.874 382.701C229.454 382.443 230.09 382.314 230.781 382.314C231.877 382.314 232.735 382.59 233.356 383.141C233.978 383.686 234.3 384.438 234.323 385.399V389.776C234.323 390.649 234.435 391.344 234.657 391.859V392H232.952ZM230.254 390.761C230.764 390.761 231.247 390.629 231.704 390.365C232.161 390.102 232.492 389.759 232.697 389.337V387.386H231.423C229.431 387.386 228.435 387.969 228.435 389.135C228.435 389.645 228.604 390.043 228.944 390.33C229.284 390.617 229.721 390.761 230.254 390.761ZM243.798 383.809H240.607V392H238.981V383.809H235.853V382.49H243.798V383.809ZM248.623 392.176C247.334 392.176 246.285 391.754 245.477 390.91C244.668 390.061 244.264 388.927 244.264 387.509V387.21C244.264 386.267 244.442 385.426 244.8 384.688C245.163 383.943 245.667 383.363 246.312 382.947C246.962 382.525 247.665 382.314 248.421 382.314C249.657 382.314 250.618 382.722 251.304 383.536C251.989 384.351 252.332 385.517 252.332 387.034V387.711H245.89C245.913 388.648 246.186 389.407 246.707 389.987C247.234 390.562 247.902 390.849 248.711 390.849C249.285 390.849 249.771 390.731 250.17 390.497C250.568 390.263 250.917 389.952 251.216 389.565L252.209 390.339C251.412 391.563 250.217 392.176 248.623 392.176ZM248.421 383.65C247.765 383.65 247.214 383.891 246.769 384.371C246.323 384.846 246.048 385.514 245.942 386.375H250.706V386.252C250.659 385.426 250.437 384.787 250.038 384.336C249.64 383.879 249.101 383.65 248.421 383.65ZM262.018 382.49V392H260.383V383.835H257.148L256.955 387.395C256.85 389.029 256.574 390.198 256.129 390.901C255.689 391.604 254.989 391.971 254.028 392H253.378V390.567L253.844 390.532C254.371 390.474 254.749 390.169 254.978 389.618C255.206 389.067 255.353 388.048 255.417 386.56L255.593 382.49H262.018ZM270.78 382.49H272.406V392H270.78V385.065L266.395 392H264.769V382.49H266.395V389.434L270.78 382.49ZM275.052 391.147C275.052 390.866 275.134 390.632 275.298 390.444C275.468 390.257 275.72 390.163 276.054 390.163C276.388 390.163 276.64 390.257 276.81 390.444C276.985 390.632 277.073 390.866 277.073 391.147C277.073 391.417 276.985 391.643 276.81 391.824C276.64 392.006 276.388 392.097 276.054 392.097C275.72 392.097 275.468 392.006 275.298 391.824C275.134 391.643 275.052 391.417 275.052 391.147Z" fill="black"/>
<defs>
<clipPath id="clip0">
<rect width="266" height="251" fill="white" transform="translate(84)"/>
</clipPath>
</defs>
</svg>
