<svg width="128" height="32" viewBox="0 0 128 32" fill="none" xmlns="http://www.w3.org/2000/svg">
<rect width="128" height="32" rx="16" fill="#F4F5F7"/>
<g opacity="0.5">
<path d="M80.5917 22.25C79.9 23.2833 79.1667 24.2916 78.05 24.3083C76.9333 24.3333 76.575 23.65 75.3083 23.65C74.0333 23.65 73.6417 24.2916 72.5833 24.3333C71.4917 24.375 70.6667 23.2333 69.9667 22.225C68.5417 20.1666 67.45 16.375 68.9167 13.825C69.6417 12.5583 70.9417 11.7583 72.35 11.7333C73.4167 11.7166 74.4333 12.4583 75.0917 12.4583C75.7417 12.4583 76.975 11.5666 78.2667 11.7C78.8083 11.725 80.325 11.9166 81.3 13.35C81.225 13.4 79.4917 14.4166 79.5083 16.525C79.5333 19.0416 81.7167 19.8833 81.7417 19.8916C81.7167 19.95 81.3917 21.0916 80.5917 22.25ZM75.8333 8.91663C76.4417 8.22496 77.45 7.69996 78.2833 7.66663C78.3917 8.64163 78 9.62496 77.4167 10.325C76.8417 11.0333 75.8917 11.5833 74.9583 11.5083C74.8333 10.55 75.3 9.54996 75.8333 8.91663Z" fill="black"/>
</g>
<g opacity="0.2">
<path d="M55.3334 13L48.0001 20.3333L44.6667 17" stroke="#3978F1" stroke-width="2" stroke-linecap="round" stroke-linejoin="round"/>
</g>
</svg>
