<svg width="181" height="28" viewBox="0 0 181 28" fill="none" xmlns="http://www.w3.org/2000/svg">
<path d="M39.724 20.288C38.68 20.288 37.66 20.174 36.664 19.946C35.68 19.706 34.87 19.388 34.234 18.992L35.602 15.896C36.202 16.244 36.874 16.526 37.618 16.742C38.362 16.946 39.076 17.048 39.76 17.048C40.348 17.048 40.768 16.994 41.02 16.886C41.272 16.766 41.398 16.592 41.398 16.364C41.398 16.1 41.23 15.902 40.894 15.77C40.57 15.638 40.03 15.494 39.274 15.338C38.302 15.134 37.492 14.918 36.844 14.69C36.196 14.45 35.632 14.066 35.152 13.538C34.672 12.998 34.432 12.272 34.432 11.36C34.432 10.568 34.654 9.848 35.098 9.2C35.542 8.552 36.202 8.042 37.078 7.67C37.966 7.298 39.04 7.112 40.3 7.112C41.164 7.112 42.01 7.208 42.838 7.4C43.678 7.58 44.416 7.85 45.052 8.21L43.774 11.288C42.538 10.664 41.368 10.352 40.264 10.352C39.172 10.352 38.626 10.616 38.626 11.144C38.626 11.396 38.788 11.588 39.112 11.72C39.436 11.84 39.97 11.972 40.714 12.116C41.674 12.296 42.484 12.506 43.144 12.746C43.804 12.974 44.374 13.352 44.854 13.88C45.346 14.408 45.592 15.128 45.592 16.04C45.592 16.832 45.37 17.552 44.926 18.2C44.482 18.836 43.816 19.346 42.928 19.73C42.052 20.102 40.984 20.288 39.724 20.288ZM60.7161 13.412C61.4601 13.688 62.0361 14.09 62.4441 14.618C62.8521 15.146 63.0561 15.782 63.0561 16.526C63.0561 17.63 62.6001 18.488 61.6881 19.1C60.7761 19.7 59.4561 20 57.7281 20H50.6361V7.4H57.3681C59.0481 7.4 60.3141 7.7 61.1661 8.3C62.0301 8.9 62.4621 9.698 62.4621 10.694C62.4621 11.282 62.3121 11.81 62.0121 12.278C61.7241 12.746 61.2921 13.124 60.7161 13.412ZM54.8121 10.37V12.242H56.7921C57.7161 12.242 58.1781 11.93 58.1781 11.306C58.1781 10.682 57.7161 10.37 56.7921 10.37H54.8121ZM57.3681 17.03C58.3041 17.03 58.7721 16.7 58.7721 16.04C58.7721 15.38 58.3041 15.05 57.3681 15.05H54.8121V17.03H57.3681ZM73.738 16.832H72.586V20H68.338V7.4H74.404C75.568 7.4 76.582 7.592 77.446 7.976C78.31 8.36 78.976 8.912 79.444 9.632C79.912 10.352 80.146 11.192 80.146 12.152C80.146 13.052 79.942 13.838 79.534 14.51C79.126 15.182 78.538 15.716 77.77 16.112L80.416 20H75.88L73.738 16.832ZM75.862 12.152C75.862 11.684 75.718 11.324 75.43 11.072C75.142 10.808 74.71 10.676 74.134 10.676H72.586V13.628H74.134C74.71 13.628 75.142 13.502 75.43 13.25C75.718 12.986 75.862 12.62 75.862 12.152ZM96.0061 16.796V20H85.5301V7.4H95.7721V10.604H89.7061V12.08H95.0341V15.14H89.7061V16.796H96.0061ZM114.71 7.4L109.382 20H105.206L99.8776 7.4H104.45L107.456 14.762L110.534 7.4H114.71ZM118.912 7.4H123.16V20H118.912V7.4ZM139.461 16.796V20H128.985V7.4H139.227V10.604H133.161V12.08H138.489V15.14H133.161V16.796H139.461ZM165.203 7.4L161.171 20H156.617L154.583 13.268L152.441 20H147.887L143.855 7.4H148.229L150.425 14.564L152.747 7.4H156.653L158.849 14.654L161.171 7.4H165.203ZM174.624 20.288C173.58 20.288 172.56 20.174 171.564 19.946C170.58 19.706 169.77 19.388 169.134 18.992L170.502 15.896C171.102 16.244 171.774 16.526 172.518 16.742C173.262 16.946 173.976 17.048 174.66 17.048C175.248 17.048 175.668 16.994 175.92 16.886C176.172 16.766 176.298 16.592 176.298 16.364C176.298 16.1 176.13 15.902 175.794 15.77C175.47 15.638 174.93 15.494 174.174 15.338C173.202 15.134 172.392 14.918 171.744 14.69C171.096 14.45 170.532 14.066 170.052 13.538C169.572 12.998 169.332 12.272 169.332 11.36C169.332 10.568 169.554 9.848 169.998 9.2C170.442 8.552 171.102 8.042 171.978 7.67C172.866 7.298 173.94 7.112 175.2 7.112C176.064 7.112 176.91 7.208 177.738 7.4C178.578 7.58 179.316 7.85 179.952 8.21L178.674 11.288C177.438 10.664 176.268 10.352 175.164 10.352C174.072 10.352 173.526 10.616 173.526 11.144C173.526 11.396 173.688 11.588 174.012 11.72C174.336 11.84 174.87 11.972 175.614 12.116C176.574 12.296 177.384 12.506 178.044 12.746C178.704 12.974 179.274 13.352 179.754 13.88C180.246 14.408 180.492 15.128 180.492 16.04C180.492 16.832 180.27 17.552 179.826 18.2C179.382 18.836 178.716 19.346 177.828 19.73C176.952 20.102 175.884 20.288 174.624 20.288Z" fill="white"/>
<g clip-path="url(#clip0)">
<path d="M11.9693 20.8756C11.9254 21.1375 11.8816 21.3995 11.8289 21.6614C11.3638 24.1235 9.81063 25.6951 7.59052 26.6817C6.08119 27.3452 4.4929 27.6857 2.85194 27.8254C2.05341 27.8953 1.25487 27.9302 0.456332 28C0.105326 28.0262 2.46512e-05 27.8865 0.00879979 27.5547C0.0614506 25.1887 0.272054 22.8401 0.69326 20.5089C1.3865 16.6237 2.58869 12.9043 4.39637 9.39447C6.21282 5.87592 8.52946 2.75899 11.6095 0.209565C11.9781 -0.0960163 12.1799 -0.00870728 12.487 0.244489C15.2424 2.53198 17.4187 5.32587 19.1474 8.46027C21.3499 12.459 22.7452 16.7372 23.4647 21.2336C23.7982 23.3028 23.9913 25.3808 24 27.4674C24 27.8516 23.9123 28.0175 23.4911 27.9913C20.8322 27.8603 18.1821 27.6246 15.7777 26.3412C13.6103 25.1887 12.3379 23.4338 12.1097 20.9629C12.1097 20.9367 12.0834 20.9105 12.0746 20.8843C12.0307 20.8931 11.9956 20.8843 11.9693 20.8756ZM5.52836 13.3059C9.10862 14.0917 11.2322 16.2133 12.0132 19.7406C12.8117 16.2046 14.9265 14.0917 18.4892 13.3059C14.8914 12.5027 12.7503 10.3723 12.0132 6.78393C11.2585 10.3723 9.11739 12.5114 5.52836 13.3059Z" fill="#8BEAB6"/>
</g>
<defs>
<clipPath id="clip0">
<rect width="24" height="28" fill="white"/>
</clipPath>
</defs>
</svg>
