<svg width="194" height="183" viewBox="0 0 194 183" fill="none" xmlns="http://www.w3.org/2000/svg">
<path d="M36.9959 19.4656C38.1133 16.9022 40.2684 15.3402 42.4236 13.8182C46.9333 10.5739 51.7624 7.77026 56.9905 5.9679C61.8196 4.32574 66.7683 3.04406 71.9167 2.28306C80.3775 1.04144 88.8782 0.761069 97.4188 0.320491C102.527 0.0401231 107.636 -0.0399819 112.744 0.120228C117.733 0.280438 122.761 0.761069 127.71 1.48201C130.304 1.88254 132.938 2.16291 135.572 2.48333C138.725 2.8438 141.678 4.04538 144.712 5.00664C148.343 6.16816 151.855 7.52995 155.327 9.29226C158.879 11.0946 162.352 13.0572 165.265 15.5405C169.775 19.3855 174.125 23.4709 177.677 28.3973C180.75 32.723 183.344 37.289 185.579 42.0552C188.133 47.6225 190.168 53.35 191.326 59.438C192.204 64.0441 193.241 68.6101 193.88 73.2161C193.96 73.8169 193.96 74.4177 193.96 75.0185C193.96 80.5057 194.279 86.0329 193.96 91.5201C193.8 94.5641 193.561 97.568 192.882 100.572C192.244 103.456 192.044 106.46 191.086 109.263C189.65 113.389 188.173 117.474 186.018 121.279C182.785 127.087 178.275 131.733 173.247 135.938C172.568 136.499 171.85 136.94 170.972 137.06C167.739 131.452 163.389 126.846 158.321 122.841C157.483 122.2 156.605 121.519 156.525 120.318C156.365 117.795 155.886 115.231 156.166 112.788C156.964 105.579 157.961 98.3691 160.077 91.3999C160.755 89.1971 162.591 87.9955 164.786 88.3159C167.899 88.7164 171.012 88.8366 174.045 87.7151C177.198 86.5135 178.754 84.3907 178.914 81.3067C179.034 78.0224 177.477 75.7394 174.564 74.6179C172.888 73.9771 172.848 73.2962 173.247 71.7342C174.364 67.2883 174.684 62.7223 171.97 58.7972C170.294 56.394 167.699 54.6317 166.742 51.6678C166.582 51.1471 165.824 50.7466 165.265 50.3461C163.309 48.9843 161.074 48.8241 158.76 48.8241C155.966 48.8241 153.172 48.9843 150.658 47.3422C150.419 47.1819 150.02 47.3021 149.7 47.2621C148.263 47.1018 147.585 47.8628 148.263 49.0644C148.982 50.306 148.224 50.8267 147.665 51.5877C140.002 53.0296 132.539 55.1524 125.355 58.1964C124.517 58.5569 123.48 58.7571 123.32 59.8786C123.16 61.1603 124.238 61.5608 125.036 62.0815C128.828 64.5247 132.659 66.9278 136.49 69.331C137.408 69.8917 137.847 70.2923 137.089 71.4538C132.26 79.0638 128.109 87.0342 124.757 95.4052C123.839 97.6481 122.642 99.5306 120.886 101.293C115.458 106.62 110.749 112.588 105.72 118.275C103.725 120.558 101.729 122.841 99.5739 125.324C99.2147 124.283 98.9753 123.562 98.656 122.841C97.5785 120.238 96.461 117.634 93.3081 116.873C92.47 116.673 92.7095 115.952 92.6297 115.391C92.3503 113.068 92.0709 110.745 91.7916 108.422C91.7118 107.781 91.7517 106.94 91.153 106.62C89.9957 106.019 90.1154 105.018 90.2351 104.057C90.3548 102.655 90.5145 101.253 90.714 99.8911C91.5122 94.7644 93.1086 89.7578 93.7072 84.591C94.4256 78.5431 92.3503 73.8169 87.0424 70.7729C83.65 68.8103 80.138 67.0079 76.6659 65.2056C69.7616 61.6009 62.6976 58.3566 56.791 53.1097C55.9529 52.3487 54.9152 51.828 53.8377 51.4676C51.0041 50.6265 47.8113 52.1885 47.093 54.872C46.5741 56.8346 47.1329 58.7171 48.0508 60.4794C49.4875 63.2831 51.7225 65.3658 54.1969 67.2082C56.7511 69.1307 59.5048 70.6527 62.3783 72.2148C57.4295 74.7381 56.9107 75.459 56.2322 81.1465C56.1524 81.9075 55.6735 81.9475 55.2345 82.1478C53.4785 82.8287 52.4009 84.1905 52.0417 85.9528C51.2435 89.918 52.1615 93.5227 54.995 96.4466C55.6735 97.1274 56.1125 97.8484 56.4717 98.7296C58.0282 102.975 60.8218 104.978 64.9724 104.978C68.3248 104.978 68.7638 105.338 69.0033 108.623C69.4423 114.19 68.5643 119.797 68.8436 125.364C68.9235 126.726 68.5643 127.728 67.4867 128.649C66.0101 129.85 65.2119 131.613 64.7729 133.455C63.6155 137.981 64.2939 142.307 66.4491 146.432C66.7284 146.953 67.4867 147.393 66.8082 148.154C64.5334 150.878 64.3339 154.122 64.8926 157.447C65.0123 158.168 64.8527 158.608 64.1343 158.768C59.9438 159.85 55.8331 160.09 52.1216 157.326C48.3302 154.523 46.2549 150.477 44.3791 146.352C41.3859 139.783 39.2308 132.934 36.6766 126.206C35.1201 122.16 33.404 118.115 30.0117 115.231C28.6149 114.07 27.9763 112.868 27.697 111.146C27.218 108.262 26.0208 105.458 25.9809 102.575C25.9409 99.0099 26.779 95.4052 28.4552 92.1609C30.331 88.4761 31.7677 84.591 32.9251 80.6258C34.1224 76.5405 35.2399 72.415 35.6389 68.1294C35.7986 66.287 36.078 64.2844 34.8408 62.7223C34.0825 61.7611 34.1623 61.0001 34.5215 59.9988C36.4371 54.2312 38.4326 48.5037 40.5877 42.8563C42.2639 38.4505 44.2195 34.1248 44.8979 29.3986C45.337 26.2345 44.2195 23.8313 41.6653 21.9489C40.1088 20.9075 38.4725 20.3067 36.9959 19.4656Z" fill="#E4F4F1"/>
<path d="M149.62 47.2619C149.94 47.2619 150.339 47.1818 150.578 47.3421C153.093 48.9442 155.886 48.824 158.68 48.824C160.955 48.824 163.23 48.9842 165.185 50.346C165.704 50.7065 166.462 51.107 166.662 51.6677C167.62 54.6717 170.214 56.3939 171.89 58.7971C174.644 62.7222 174.285 67.2882 173.167 71.734C172.768 73.2961 172.848 73.977 174.484 74.6178C177.398 75.7393 178.994 78.0223 178.834 81.3066C178.715 84.3506 177.118 86.5134 173.965 87.715C170.972 88.8365 167.819 88.7163 164.706 88.3158C162.471 88.0354 160.636 89.237 159.997 91.3998C157.882 98.369 156.884 105.578 156.086 112.788C155.806 115.271 156.285 117.794 156.445 120.318C156.525 121.519 157.403 122.2 158.241 122.841C163.309 126.806 167.66 131.452 170.892 137.06C175.482 145.07 178.355 153.682 179.752 162.814C179.872 163.454 179.952 164.135 180.032 164.776C180.151 165.697 179.872 166.418 178.914 166.618C177.876 166.819 177.358 166.178 177.158 165.177C176.519 161.852 176.001 158.488 175.123 155.204C172.768 146.192 168.897 137.901 162.671 130.892C161.035 129.049 159.159 127.407 157.203 125.925C154.45 123.882 153.093 121.279 153.252 117.875C153.292 116.913 153.133 116.433 151.975 116.473C144.392 116.713 137.688 114.07 131.302 110.184C130.783 109.864 130.224 109.103 129.586 109.504C128.987 109.864 129.546 110.585 129.546 111.146C129.506 113.749 128.907 116.313 128.508 118.876C128.269 120.598 128.109 122.32 128.548 124.043C129.147 126.486 130.304 127.367 132.819 127.327C134.974 127.287 137.009 126.606 139.005 125.885C142.557 124.603 146.029 123.041 149.7 122.12C150.219 122 150.738 121.84 151.257 121.76C152.095 121.68 152.694 122.04 152.853 122.921C153.013 123.762 152.694 124.403 151.816 124.603C146.428 125.805 141.519 128.488 136.171 129.81C135.932 129.89 135.652 129.97 135.413 130.01C128.947 131.252 125.036 127.888 125.435 121.239C125.555 119.316 125.874 117.394 126.114 115.311C124.797 115.992 124.278 117.194 123.4 118.035C122.402 118.956 121.444 119.877 120.207 120.398C118.052 121.359 116.416 120.518 115.857 118.235C115.458 116.713 115.658 115.191 115.897 113.669C115.977 112.948 116.057 112.227 116.176 111.386C114.979 111.506 114.62 112.508 114.061 113.148C109.911 117.915 105.8 122.721 101.649 127.487C101.011 128.208 100.492 128.849 100.891 129.93C106.279 144.109 113.263 157.406 123.56 168.621C127.351 172.747 132.02 175.55 137.887 175.47C139.444 175.43 140.92 175.23 142.357 174.509C142.237 173.828 141.519 173.948 141.16 173.628C139.803 172.626 138.885 171.345 139.084 169.582C139.244 168.06 140.202 167.219 141.599 166.779C143.275 166.258 144.951 166.498 145.909 167.94C147.106 169.703 147.705 168.861 148.583 167.78C149.9 166.178 151.017 164.456 151.736 162.493C152.095 161.492 152.614 160.531 153.891 161.091C155.168 161.652 154.809 162.653 154.41 163.655C153.611 165.737 152.494 167.62 151.097 169.302C149.381 171.385 147.226 172.987 145.789 175.39C144.632 177.393 142.157 177.953 139.843 178.234C132.38 179.115 126.593 175.791 121.484 170.824C115.578 165.056 111.587 158.007 107.476 150.958C102.966 143.228 99.0951 135.217 96.7803 126.486C96.2615 124.483 95.5831 122.521 94.3059 120.838C93.5078 119.797 92.8692 119.236 91.5921 120.718C87.2819 125.605 81.5349 127.968 75.309 129.29C74.5108 129.45 73.7526 129.57 72.9544 129.65C69.4822 129.97 68.2051 130.972 67.407 134.416C66.4491 138.742 67.1675 142.787 69.9612 146.312C70.7993 147.353 70.8791 148.154 69.8414 149.035C67.4868 151.038 67.1276 153.641 67.6065 156.485C68.1652 159.85 69.5222 162.974 70.8392 166.098C72.5952 170.263 74.5508 174.349 75.7879 178.714C76.0274 179.596 76.227 180.557 76.2669 181.478C76.3068 182.319 75.748 182.84 74.9099 182.92C74.1517 182.96 73.5929 182.519 73.4333 181.798C72.1562 175.03 68.6042 169.142 66.3294 162.773C65.9303 161.652 65.6509 161.251 64.294 161.612C56.3121 163.735 50.2858 161.492 45.5765 154.603C41.4658 148.595 39.2309 141.746 36.6767 135.017C34.8408 130.091 33.444 124.964 30.5705 120.478C30.0916 119.757 29.5728 119.076 29.0539 118.355C27.9365 116.833 26.5396 116.192 24.5841 116.433C19.5954 116.993 14.7663 117.995 10.0969 119.957C7.06381 121.239 5.62707 123.362 5.70689 126.766C5.82662 133.775 7.50282 140.504 9.25883 147.193C9.81757 149.316 10.2965 151.479 10.8153 153.601C10.935 153.922 10.8153 154.202 10.5758 154.402C9.81757 154.402 9.05929 154.402 8.30101 154.402C8.10146 154.162 7.90191 153.922 7.70236 153.641C6.98399 148.955 5.3078 144.51 4.42979 139.863C3.47196 134.817 2.43431 129.77 2.95314 124.603C3.15268 122.681 3.67151 120.919 5.22798 119.677C6.10599 118.996 5.90644 118.195 5.78671 117.354C5.26789 113.709 4.50961 110.104 4.23024 106.46C3.71142 99.9711 3.39214 93.4826 3.07286 86.954C2.83341 81.7872 1.1173 76.9008 0.438839 71.8142C-0.119894 67.5686 -0.598808 63.2429 1.1173 59.1976C2.07513 56.9547 2.71368 54.8319 2.59395 52.4287C2.51413 50.5863 3.15268 48.8641 4.54952 47.5824C4.70915 47.4622 4.94861 47.302 4.94861 47.1418C4.86879 44.0177 7.0239 41.6546 7.74227 38.8509C8.58037 35.4865 9.61802 32.3224 12.1722 29.8391C13.17 28.8778 14.3273 28.1168 15.7242 28.2771C16.9215 28.3972 17.3605 27.8765 17.7596 26.9153C18.7573 24.432 20.0344 22.109 21.5909 19.9461C23.746 16.9822 26.38 15.9409 29.9719 16.9422C32.3265 17.583 34.6014 18.5443 36.9161 19.3453C38.4327 20.1864 40.029 20.7872 41.4658 21.8286C44.02 23.671 45.1774 26.1142 44.6985 29.2784C44.02 34.0046 42.0644 38.3302 40.3882 42.736C38.3129 48.5036 36.3175 54.2311 34.4018 59.9987C34.0825 61 33.9628 61.761 34.7211 62.7222C35.9982 64.2843 35.7188 66.2869 35.5193 68.1293C35.1202 72.4149 33.9628 76.5003 32.8054 80.6257C31.6481 84.5909 30.2113 88.476 28.3356 92.1608C26.6594 95.4451 25.8213 99.0098 25.8612 102.574C25.9011 105.418 27.0984 108.262 27.5773 111.146C27.8567 112.868 28.5351 114.07 29.892 115.231C33.2843 118.115 35.0005 122.16 36.5569 126.205C39.1111 132.934 41.2662 139.783 44.2595 146.352C46.1352 150.477 48.2504 154.523 52.0019 157.326C55.7135 160.09 59.8241 159.85 64.0146 158.768C64.733 158.568 64.8927 158.167 64.7729 157.446C64.2142 154.122 64.4137 150.918 66.6886 148.154C67.3271 147.353 66.6088 146.953 66.3294 146.432C64.1344 142.307 63.4559 137.981 64.6532 133.455C65.1321 131.613 65.9303 129.89 67.367 128.649C68.4845 127.727 68.8038 126.766 68.724 125.364C68.4446 119.797 69.3226 114.23 68.8836 108.622C68.6042 105.338 68.2051 104.938 64.8527 104.978C60.7022 104.978 57.9085 102.975 56.352 98.7294C56.0327 97.8483 55.5538 97.1273 54.8754 96.4465C52.0019 93.5226 51.1239 89.9179 51.9221 85.9527C52.2813 84.1503 53.3987 82.8286 55.1148 82.1477C55.5937 81.9474 56.0328 81.9474 56.1126 81.1464C56.791 75.4589 57.3498 74.738 62.2586 72.2147C59.3851 70.6526 56.5915 69.1306 54.0772 67.2081C51.6028 65.3256 49.4078 63.283 47.9311 60.4793C47.0132 58.717 46.4545 56.8746 46.9733 54.8719C47.6917 52.1884 50.8445 50.5863 53.718 51.4675C54.7956 51.7879 55.8332 52.3486 56.6713 53.1096C62.5779 58.3164 69.6818 61.6008 76.5462 65.2055C80.0183 67.0078 83.5304 68.8102 86.9227 70.7728C92.2307 73.8568 94.3059 78.543 93.5876 84.5909C92.9889 89.7577 91.3526 94.7642 90.5944 99.891C90.3948 101.293 90.2352 102.655 90.1154 104.056C90.0356 105.018 89.876 106.019 91.0334 106.62C91.632 106.94 91.5921 107.781 91.6719 108.422C91.9513 110.745 92.2307 113.068 92.51 115.391C92.5898 115.952 92.3504 116.673 93.1885 116.873C96.3413 117.634 97.4588 120.238 98.5363 122.841C98.8157 123.562 99.0552 124.323 99.4543 125.324C101.609 122.841 103.565 120.558 105.6 118.275C110.629 112.588 115.338 106.62 120.766 101.293C122.522 99.5705 123.719 97.648 124.637 95.4051C127.99 87.0341 132.14 79.0637 136.969 71.4537C137.727 70.2521 137.288 69.8916 136.371 69.3309C132.539 66.9277 128.708 64.5246 124.917 62.0814C124.118 61.5607 123.041 61.1201 123.2 59.8785C123.36 58.757 124.438 58.5568 125.236 58.1963C132.42 55.1523 139.883 53.0295 147.545 51.5876C148.503 51.4675 149.461 51.3874 150.419 51.2672C150.339 49.7853 148.583 48.824 149.62 47.2619ZM127.79 60.3591C131.901 63.0026 135.692 65.4057 139.444 67.889C141.559 69.2908 141.599 69.6513 140.282 71.694C134.535 80.6257 129.865 90.1182 125.914 99.9711C125.555 100.852 125.356 101.533 126.114 102.294C133.178 109.103 141.399 113.228 151.297 113.629C152.654 113.669 153.053 113.108 153.212 111.747C154.09 103.095 155.806 94.6441 158.321 86.3132C158.999 84.0302 159.279 83.87 161.514 84.5108C165.185 85.5922 168.937 86.153 172.688 84.9514C174.923 84.2705 175.921 82.9087 175.921 80.9061C175.921 78.7833 174.644 77.5417 172.808 76.9809C169.216 75.9396 165.584 75.0584 162.112 77.5016C161.593 77.8621 161.114 77.782 160.715 77.2613C160.356 76.8207 160.516 76.3801 160.835 76.0197C162.87 73.6566 163.429 70.8529 163.11 67.8489C162.711 64.3644 162.831 60.9599 164.826 57.8759C162.87 57.4753 161.035 57.1549 159.239 56.6743C157.363 56.1937 155.607 55.3526 154.011 54.2711C153.332 53.7905 152.574 53.9908 151.895 54.0709C143.674 54.912 135.772 57.1549 127.79 60.3591ZM58.7067 89.0768C61.1013 86.9941 63.416 85.3519 66.1298 84.3906C67.5666 83.91 69.0033 83.7097 70.3203 84.5909C71.0786 85.1116 71.2782 85.8726 70.8791 86.7137C70.5199 87.4346 69.8015 87.6349 69.2029 87.2744C68.1652 86.6336 67.2473 87.0742 66.3693 87.4747C63.855 88.5962 61.6999 90.2383 59.7842 92.2409C58.2677 93.843 58.3076 95.5653 58.9861 97.4077C59.7842 99.5305 60.8618 101.413 63.2963 102.014C64.2541 102.254 64.8128 102.174 64.4537 100.852C63.9348 98.9698 64.5734 97.2876 66.05 96.0059C66.8083 95.325 67.6863 94.9245 68.5244 95.8056C69.4024 96.6868 68.9235 97.4878 68.1253 98.1687C67.1276 98.9698 67.0877 100.011 67.6065 101.052C68.1253 102.134 68.724 103.175 70.2006 103.215C70.9988 103.255 71.797 103.335 72.5553 103.496C73.4333 103.696 74.1517 104.457 73.6727 105.218C72.3557 107.261 73.3934 109.343 73.3136 111.386C73.2736 112.628 73.8723 112.748 74.9099 112.668C78.9807 112.427 82.6923 111.146 86.0447 108.823C86.9626 108.222 87.4016 107.581 87.3218 106.42C87.1222 102.935 87.681 99.5305 88.3993 96.086C89.2774 91.9205 90.4347 87.7951 90.8338 83.5095C91.2329 79.1838 89.7164 75.7794 86.0048 73.4964C84.0891 72.2948 82.1336 71.1733 80.0982 70.1319C71.3181 65.566 62.1788 61.6408 54.596 55.0321C54.3566 54.8319 54.0373 54.6717 53.718 54.5515C52.6404 53.9908 51.5629 53.8306 50.5652 54.6717C49.4876 55.5929 49.6871 56.7143 50.0862 57.7958C50.9243 60.0387 52.3611 61.8411 54.1969 63.3631C57.23 65.9264 60.5824 67.889 64.0945 69.6914C65.6908 70.4924 67.1675 70.8529 69.0033 70.3322C71.7172 69.5312 74.5108 69.5312 77.2247 70.6526C78.0229 70.973 78.6215 71.6139 78.2623 72.5351C77.9431 73.3762 77.3045 73.7767 76.3467 73.4563C70.9988 71.6539 66.2895 73.8168 61.6201 75.8995C59.6645 76.7807 58.7865 78.543 59.1457 80.9862C61.8595 79.2639 64.4936 77.7419 67.367 76.7006C68.9634 76.1398 70.5598 75.6992 72.236 75.9796C73.0342 76.0998 73.6328 76.6204 73.5929 77.4616C73.553 78.3828 72.9943 78.8634 71.9965 78.9034C67.407 78.9836 63.8151 81.3466 60.343 83.9901C58.7466 85.1917 58.2278 86.8739 58.7067 89.0768ZM8.2611 74.5778C8.06155 76.7807 8.62028 78.6631 10.8153 79.7045C12.9305 80.7058 15.0457 81.9074 16.8416 79.1838C17.0013 78.9034 17.3206 78.7032 17.6398 78.583C22.5088 76.6605 24.8235 72.7354 26.2204 67.9291C26.819 65.8463 27.8966 63.8036 29.6925 62.4419C30.5705 61.801 31.0095 61.04 31.3288 60.0788C33.1646 54.3112 35.1601 48.5837 37.2753 42.8962C38.8318 38.8109 40.5878 34.7656 41.5855 30.4799C42.4236 26.9153 41.7851 25.3532 38.5125 23.5909C35.639 22.0289 32.6059 20.8273 29.4929 19.9461C26.7392 19.1851 25.502 19.6658 23.8657 21.9888C21.8702 24.7925 20.5532 27.9166 19.1963 31.0006C13.1301 44.9389 9.0992 59.3578 8.2611 74.5778ZM15.7242 102.214C17.7596 102.334 19.4358 102.294 21.112 102.534C22.5487 102.735 22.9079 102.174 23.0675 100.852C23.3868 97.5279 24.0253 94.2436 25.5419 91.2396C28.6548 85.0715 30.6104 78.5029 32.0472 71.7741C32.4862 69.6914 32.8453 67.5686 32.6458 65.4057C32.6059 65.0853 32.6857 64.6848 32.3265 64.5246C31.8875 64.3243 31.5682 64.6047 31.3288 64.9251C30.9297 65.4458 30.4907 65.9665 30.1714 66.5272C28.575 69.2508 27.6172 72.2147 26.5796 75.1786C26.1006 76.5003 25.3424 77.3815 24.1052 78.1024C20.7129 80.0249 17.0412 81.6671 15.5645 85.7524C15.3251 86.4333 14.7264 86.5935 14.0879 86.4734C13.4493 86.3532 12.8507 85.7925 13.0103 85.2318C13.4892 83.5495 12.292 83.4294 11.2942 83.0289C6.46517 81.1464 5.06834 79.0236 5.42752 73.8969C5.78671 69.0906 6.30553 64.3243 7.14363 59.5981C7.26336 59.0374 7.78218 58.2764 6.78445 57.9159C5.98626 57.6356 5.34771 57.956 4.82888 58.5167C4.0706 59.3979 3.75133 60.4793 3.51187 61.6008C2.63386 65.5259 2.99305 69.451 3.75133 73.2961C4.86879 79.1838 6.42526 84.9914 6.30553 91.0794C6.22571 94.4839 6.46517 97.8884 6.94408 101.253C7.14363 102.494 7.423 102.895 8.81983 102.695C11.2144 102.374 13.6888 102.374 15.7242 102.214ZM89.1177 110.144C84.0492 114.11 78.5417 115.792 72.5553 115.672C71.7571 115.672 71.7571 116.152 71.7571 116.713C71.7571 119.717 71.7571 122.721 71.7172 125.725C71.7172 126.566 71.9167 126.846 72.8746 126.726C78.7013 126.045 83.8497 123.802 88.3594 120.077C89.0778 119.517 89.9159 118.836 89.8361 117.835C89.6764 115.431 89.3971 112.988 89.1177 110.144ZM16.1632 105.178C13.5691 105.218 10.9749 105.418 8.42074 105.699C7.423 105.779 7.06381 106.059 7.26336 107.181C7.78218 110.144 8.22119 113.108 8.58037 116.072C8.74001 117.314 9.05929 117.434 10.1768 116.953C14.5668 115.151 19.1564 114.19 23.8657 113.749C24.7836 113.669 25.1827 113.469 24.9433 112.467C24.5442 110.705 24.185 108.943 23.9056 107.181C23.7061 105.979 23.0675 105.538 21.9101 105.498C19.9945 105.458 18.0788 105.298 16.1632 105.178ZM117.014 109.664C119.01 109.664 119.329 110.625 119.09 112.067C118.85 113.509 118.731 114.951 118.611 116.433C118.571 116.833 118.411 117.474 118.97 117.634C119.249 117.714 119.688 117.394 119.968 117.154C121.524 115.912 122.721 114.27 124.039 112.828C125.276 111.426 126.194 109.664 128.309 109.143C129.187 108.943 128.548 108.342 128.149 108.022C126.553 106.82 124.996 105.538 123.759 104.016C123.041 103.135 122.642 103.456 122.083 104.056C120.526 105.819 118.93 107.581 117.014 109.664ZM9.85748 48.0229C6.70463 48.9041 5.34771 50.7465 5.38761 53.6704C5.42752 54.6316 5.70689 54.912 6.66472 54.952C7.54273 55.0321 8.14137 55.1523 8.38083 54.0308C8.77992 52.0682 9.33865 50.1858 9.85748 48.0229ZM16.0035 31.0407C13.2897 32.2823 12.3718 34.4051 11.5337 36.5279C11.2942 37.0886 10.6557 37.9698 11.4139 38.2501C12.1323 38.4904 13.2099 38.4904 13.609 37.2088C14.2475 35.2862 15.0856 33.4038 16.0035 31.0407ZM11.853 41.2941C9.85748 41.8549 8.74001 43.0564 8.38083 45.0991C11.2144 44.8988 11.2144 44.8988 11.853 41.2941ZM55.913 92.4813C55.7534 90.0781 55.2745 87.6749 56.0727 84.7111C54.1171 87.1543 54.157 89.8378 55.913 92.4813ZM144.193 170.784C144.073 170.103 143.634 169.703 143.035 169.582C142.596 169.502 141.998 169.582 141.998 170.183C141.998 170.864 142.517 171.225 143.155 171.345C143.594 171.385 144.073 171.345 144.193 170.784Z" fill="#383838"/>
<path d="M9.85743 48.0229C9.2987 50.1457 8.73996 52.0682 8.34087 54.0308C8.10141 55.1523 7.50277 55.0321 6.62476 54.952C5.70684 54.8719 5.38757 54.5916 5.34766 53.6704C5.34766 50.7866 6.70458 48.9041 9.85743 48.0229Z" fill="#E4F4F1"/>
<path d="M16.0036 31.041C15.0458 33.4041 14.2077 35.2866 13.6091 37.2091C13.21 38.4908 12.1324 38.4908 11.4141 38.2505C10.6558 37.9701 11.2943 37.089 11.5338 36.5282C12.4118 34.4054 13.2898 32.2426 16.0036 31.041Z" fill="#E4F4F1"/>
<path d="M11.853 41.2944C11.2144 44.8992 11.2144 44.8992 8.38086 45.0994C8.74004 43.0567 9.8176 41.8552 11.853 41.2944Z" fill="#E4F4F1"/>
<path d="M55.9131 92.4816C54.1172 89.8782 54.0773 87.1546 56.0728 84.7114C55.2746 87.6353 55.7934 90.0384 55.9131 92.4816Z" fill="#E4F4F1"/>
<path d="M144.193 170.784C144.073 171.344 143.594 171.425 143.155 171.344C142.516 171.224 142.037 170.864 141.998 170.183C141.998 169.582 142.556 169.502 143.035 169.582C143.674 169.662 144.073 170.103 144.193 170.784Z" fill="#E4F4F1"/>
<path d="M148.822 78.2626C147.386 78.1824 146.069 78.0623 144.951 77.2612C144.153 76.7406 143.674 76.0597 144.233 75.0984C144.752 74.2974 145.47 74.1372 146.268 74.6578C147.346 75.3387 148.503 75.3788 149.7 75.1785C150.698 75.0183 151.656 75.0584 151.895 76.2199C152.135 77.5016 151.137 77.9021 150.1 78.1023C149.661 78.2225 149.182 78.2626 148.822 78.2626Z" fill="#383838"/>
<path d="M170.054 79.2642C171.132 79.2642 172.209 79.4244 172.249 80.7461C172.289 82.0678 171.252 82.228 170.174 82.2681C169.456 82.2681 168.737 82.4684 168.019 82.5485C167.221 82.6686 166.542 82.4684 166.303 81.5872C166.063 80.666 166.502 79.9851 167.34 79.7448C168.218 79.4644 169.136 79.4244 170.054 79.2642Z" fill="#383838"/>
<path d="M153.651 66.1667C153.691 67.5685 152.055 69.8515 151.097 69.8114C150.219 69.7714 149.78 69.2107 149.74 68.4096C149.661 67.208 151.456 64.6447 152.334 64.7648C153.133 64.8049 153.651 65.2855 153.651 66.1667Z" fill="#383838"/>
<path d="M149.181 64.645C149.221 65.9667 147.465 68.49 146.587 68.4099C145.789 68.3298 145.23 67.8492 145.15 67.0081C145.031 65.8465 146.747 63.2431 147.625 63.2832C148.543 63.2832 149.022 63.8439 149.181 64.645Z" fill="#383838"/>
<path d="M10.6955 75.6194C11.813 64.685 14.5668 54.1512 18.0788 43.7776C20.1541 37.6496 21.6707 31.3213 24.9033 25.6338C25.6616 24.3121 26.4598 22.9903 27.4974 21.8689C28.1759 21.1479 29.0539 20.6673 29.9319 21.5484C30.6902 22.3094 30.3709 23.0704 29.7324 23.8314C27.3777 26.555 25.9011 29.7592 24.7437 33.0836C20.9523 44.1781 17.0412 55.2326 14.9659 66.8479C14.4071 69.8518 14.0479 72.8958 13.6089 75.9398C13.4493 77.0212 13.4892 78.2628 11.9327 78.1026C10.4162 77.9424 10.6157 76.7008 10.6955 75.6194Z" fill="#383838"/>
</svg>
